<?xml version="1.0" standalone="no"?>
<!DOCTYPE svg PUBLIC "-//W3C//DTD SVG 1.1//EN" "http://www.w3.org/Graphics/SVG/1.1/DTD/svg11.dtd" >
<!--
2013-9-30: Created.
-->
<svg>
<metadata>
Created by iconfont
</metadata>
<defs>

<font id="iconfont" horiz-adv-x="1024" >
  <font-face
    font-family="iconfont"
    font-weight="500"
    font-stretch="normal"
    units-per-em="1024"
    ascent="896"
    descent="-128"
  />
    <missing-glyph />
    
    <glyph glyph-name="canyin" unicode="&#59213;" d="M579.575553 48.617923a322.519685 322.519685 0 0 1 23.03712-176.553931L139.75853-127.872016a99.699538 99.699538 0 0 0-98.611673 91.316585l-0.31996 9.086865v42.426696a37.243345 37.243345 0 0 0 10.366704 23.293089 28.988376 28.988376 0 0 0 17.981752 10.046744l5.311336 0.31996h505.024872z m197.735283 179.369579l86.581177-86.64517 86.64517 86.64517a31.996 31.996 0 0 0 40.762904 3.711536l4.479441-3.711536a31.996 31.996 0 0 0 3.711536-40.826897l-3.711536-4.47944-54.713161-54.585177h50.809648a31.996 31.996 0 1 0 0-63.992001H895.888014v-63.992001h95.988001a31.996 31.996 0 1 0 0-63.992001H895.888014v-31.996a31.996 31.996 0 1 0-63.992001 0V-63.880015h-95.988002a31.996 31.996 0 1 0 0 63.992001H831.896013v63.992001h-95.988002a31.996 31.996 0 1 0 0 63.992001h50.745657l-54.649169 54.649169a31.996 31.996 0 0 0 45.242345 45.242345zM564.409449-16.07799H107.186602v-10.302712c0.127984-17.149856 12.670416-31.35608 29.052368-34.171729l5.631296-0.511936H530.493688a34.299713 34.299713 0 0 1 33.531809 29.116361l0.383952 5.567304v10.302712z m48.185977 165.099362c-11.774528-22.3972-20.989376-46.266217-27.196601-71.351081H32.635921c-17.661792 0-32.635921 15.998-32.635921 35.643545 0 17.725784 11.774528 32.443945 27.324584 35.1956l5.311337 0.511936h579.959505zM386.831646 493.68229c128.943882 0 234.018748-102.96313 240.48194-231.2031l0.31996-12.542432v-34.683665a31.612048 31.612048 0 0 0-9.342832-23.293088 28.15648 28.15648 0 0 0-17.917761-9.91876l-5.375328-0.383952H74.998625a31.996 31.996 0 0 0-23.293088 9.790776 30.588176 30.588176 0 0 0-8.95888 17.91776l-0.31996 5.375328v34.683665c0 130.863642 101.107362 236.96238 228.387451 243.937508l12.414448 0.31996h103.667042z m0-67.767529H283.228596a175.786027 175.786027 0 0 1-175.210098-165.739283l-0.31996-10.750656v-2.111736h454.663167v2.111736a176.553931 176.553931 0 0 1-175.530059 176.489939z m606.836146 256.15998h0.895888a31.484064 31.484064 0 0 0 29.244344-33.595801 31.612048 31.612048 0 0 0-9.342832-23.293088 28.284464 28.284464 0 0 0-17.91776-9.982752l-5.375329-0.383952h-2.111736l-21.949256-302.682165a320.535933 320.535933 0 0 1-63.992001 7.871016l21.245344 294.811149-346.516685 0.767904 5.75928-71.671042A29.564304 29.564304 0 0 0 554.042745 512.047994a34.619673 34.619673 0 0 0-34.555681 31.868016L513.855768 615.779028h-36.027497a30.972128 30.972128 0 0 0-30.07624 26.812648l-0.511936 5.887264a33.083865 33.083865 0 0 0 26.748656 33.019873l5.887264 0.575928h513.791777zM828.568429 892.8004c7.807024-4.095488 13.886264-10.87864 17.085864-19.1976 5.311336-15.35808-1.215848-31.996-14.782152-39.867017l-5.43932-2.55968-72.950881-26.364704v-56.952881a33.915761 33.915761 0 0 0-33.723785-33.595801 32.059993 32.059993 0 0 0-22.781152 9.790776 28.284464 28.284464 0 0 0-9.982752 17.917761l-0.383952 5.375328V827.528559c0 12.414448 6.463192 23.67704 16.189976 29.308336l5.11936 2.303712L803.099613 893.76028a31.03612 31.03612 0 0 0 25.404824-1.023872z"  horiz-adv-x="1024" />

    
    <glyph glyph-name="caiwuguanli_normal" unicode="&#59211;" d="M698.181818 896a186.181818 186.181818 0 0 0 185.949091-176.872727L884.363636 709.818182v-5.864727A186.274909 186.274909 0 0 0 1023.813818 532.945455L1024 523.636364v-465.454546a186.181818 186.181818 0 0 0-176.872727-185.949091L837.818182-128H186.181818a186.181818 186.181818 0 0 0-185.949091 176.872727L0 58.181818V709.818182A186.181818 186.181818 0 0 0 176.872727 895.767273L186.181818 896h512z m0-93.090909H186.181818a93.090909 93.090909 0 0 1-92.858182-86.109091L93.090909 709.818182v-651.636364a93.090909 93.090909 0 0 1 86.109091-92.858182L186.181818-34.909091h651.636364a93.090909 93.090909 0 0 1 92.858182 86.109091L930.909091 58.181818V523.636364a93.090909 93.090909 0 0 1-86.109091 92.858181L837.818182 616.727273H326.842182a46.545455 46.545455 0 0 0-5.399273 92.765091L326.842182 709.818182H791.272727a93.090909 93.090909 0 0 1-86.109091 92.858182L698.181818 802.909091zM392.843636 545.745455l119.109819-119.156364 119.249454 119.156364a46.545455 46.545455 0 0 0 61.44 3.863272l4.375273-3.863272a46.545455 46.545455 0 0 0 3.863273-61.44l-3.863273-4.375273L601.088 384 698.181818 384a46.545455 46.545455 0 0 0 0-93.090909h-139.636363v-46.545455h139.636363a46.545455 46.545455 0 0 0 0-93.090909h-139.636363v-46.545454a46.545455 46.545455 0 0 0-93.09091 0v46.545454H325.818182a46.545455 46.545455 0 0 0 0 93.090909h139.636363v46.545455H325.818182a46.545455 46.545455 0 0 0 0 93.090909h97.047273l-95.883637 95.883636A46.545455 46.545455 0 1 0 392.843636 545.792z"  horiz-adv-x="1024" />

    
    <glyph glyph-name="caiwuguanli_pressed" unicode="&#59212;" d="M122.088727-116.689455l-2.885818 1.117091-3.444364 1.396364-2.094545 0.837818a185.064727 185.064727 0 0 0-67.211636 48.453818 187.671273 187.671273 0 0 0-32.302546 51.758546A184.832 184.832 0 0 0 0 58.181818V709.818182A186.181818 186.181818 0 0 0 176.872727 895.767273L186.181818 896h512a186.181818 186.181818 0 0 0 185.949091-176.872727L884.363636 709.818182v-5.864727c80.337455-20.712727 139.636364-93.556364 139.636364-180.317091v-465.454546a186.181818 186.181818 0 0 0-186.181818-186.181818H186.181818a188.416 188.416 0 0 0-62.184727 10.658909l-1.861818 0.651636zM326.981818 545.745455a46.545455 46.545455 0 0 1-3.863273-61.44l3.863273-4.375273L422.912 384H325.818182a46.545455 46.545455 0 0 1-46.219637-41.099636L279.272727 337.454545a46.545455 46.545455 0 0 1 41.099637-46.219636L325.818182 290.909091h139.636363v-46.545455H325.818182a46.545455 46.545455 0 0 1-46.219637-41.099636L279.272727 197.818182a46.545455 46.545455 0 0 1 41.099637-46.219637L325.818182 151.272727h139.636363v-46.545454a46.545455 46.545455 0 0 1 41.099637-46.219637L512 58.181818a46.545455 46.545455 0 0 1 46.219636 41.099637L558.545455 104.727273l-0.046546 46.545454H698.181818a46.545455 46.545455 0 0 1 46.219637 41.099637L744.727273 197.818182a46.545455 46.545455 0 0 1-41.099637 46.219636L698.181818 244.363636h-139.636363v46.545455h139.636363a46.545455 46.545455 0 0 1 46.219637 41.099636L744.727273 337.454545a46.545455 46.545455 0 0 1-41.099637 46.219637L698.181818 384h-97.140363l95.976727 95.883636a46.545455 46.545455 0 0 1-65.815273 65.861819L512 426.542545l-119.156364 119.156364a46.545455 46.545455 0 0 1-65.861818 0zM698.181818 802.909091H186.181818a93.090909 93.090909 0 0 1-92.858182-86.109091L93.090909 709.818182v-24.901818A185.344 185.344 0 0 0 186.181818 709.818182h605.090909a93.090909 93.090909 0 0 1-86.109091 92.858182L698.181818 802.909091z"  horiz-adv-x="1024" />

    
    <glyph glyph-name="richengtongji" unicode="&#59209;" d="M376.192 786.368a48 48 0 0 0-25.984-62.72 384.576 384.576 0 0 1-238.208-355.2c0-212.224 173.056-384.448 386.688-384.448a386.816 386.816 0 0 1 353.472 228.48 48 48 0 0 0 87.68-39.168 482.816 482.816 0 0 0-441.152-285.312C232.128-112 16 103.04 16 368.512a480.576 480.576 0 0 0 297.472 443.84 48 48 0 0 0 62.72-25.984zM512 880A496 496 0 0 0 1008 384a48 48 0 0 0-48-48H512A48 48 0 0 0 464 384V832A48 48 0 0 0 512 880z m48-98.88V432h349.056l-1.216 9.792a400.256 400.256 0 0 1-338.048 338.048l-9.792 1.28z"  horiz-adv-x="1024" />

    
    <glyph glyph-name="queren1" unicode="&#59210;" d="M512 896a512 512 0 1 0 0-1024A512 512 0 0 0 512 896z m0-64a448 448 0 1 1 0-896A448 448 0 0 1 512 832z m286.144-297.344a32 32 0 0 0 3.712-40.832l-3.712-4.48-326.72-326.656a32 32 0 0 0-40.832-3.712l-4.416 3.712-192.832 192.768a32 32 0 0 0 40.832 48.96l4.48-3.648 170.112-170.176 304.128 304a32 32 0 0 0 45.248 0z"  horiz-adv-x="1024" />

    
    <glyph glyph-name="guanbi3" unicode="&#59205;" d="M874.057143 849.481143l103.424-103.424L615.424 384l362.057143-362.057143-103.424-103.424L512 280.576l-362.057143-362.057143L46.518857 21.942857 408.576 384 46.518857 746.057143 149.942857 849.481143 512 487.424l362.057143 362.057143z"  horiz-adv-x="1024" />

    
    <glyph glyph-name="gongzitiao1" unicode="&#59206;" d="M883.267275 76.728325V780.039972c0.511965 63.41964-47.548731 115.832037-107.512608 115.832037H109.048503C51.19648 898.62382 2.559824 851.20308 0 789.447325v-49.660585c0-27.070139 20.670579-49.084625 46.076832-49.084626h126.647293V-12.097568c-2.047859-59.515908 40.317228-110.84038 96.185387-115.832037h646.419559c59.515908-0.511965 108.600534 50.748511 108.600534 114.744112v40.829192c0 27.006143-20.670579 49.084625-46.076832 49.084626h-94.585498zM172.724125 759.113411H64.123592v20.350601c-0.511965 25.406253 18.110755 46.908775 42.429083 47.9967h28.414046c22.782434-2.751811 39.293299-23.678372 38.269369-47.9967v-20.350601H172.788121z m191.85881-771.146984c0-13.82305-6.207573-34.237646-6.207573-47.9967H281.836624c-23.806363-0.639956-43.964977 19.262676-44.988907 45.180894V834.628219h544.026598c23.806363 0.639956 43.964977-19.262676 44.988907-45.180894V83.895832h-414.69149c-25.406253 0-46.076832-22.078482-46.076832-49.084625l-0.511965-46.908775z m595.223078 0c0.511965-25.406253-18.110755-46.908775-42.429083-47.9967H422.498953c5.695608 14.846979 7.743468 31.357844 6.207573 47.9967v27.006144h531.099487v-27.070139zM650.579273 635.985876L547.098387 525.721457 443.681497 634.385986a28.350051 28.350051 0 0 1-42.365088 0c-11.391217-12.671129-11.903182-33.085725 0-45.180894l87.353995-91.065739h-62.075732c-16.510865 0-29.949941-14.335014-29.949941-31.9978 0-17.59879 13.439076-31.9978 30.013936-31.9978H517.08445v-64.507565H426.146702c-16.57486 0-30.077932-14.335014-30.077932-31.997801s13.503072-31.9978 30.077932-31.9978h90.489779v-81.082425c0-17.662786 13.439076-31.9978 29.949941-31.997801 16.57486 0 30.077932 14.335014 30.077932 31.997801V305.640587h90.425784c16.57486 0 30.013937 14.335014 30.013936 31.9978s-13.439076 31.9978-30.013936 31.997801H576.600359v63.419639h90.489779c16.57486 0 30.013937 14.335014 30.013936 31.997801s-13.439076 31.9978-30.013936 31.9978h-61.499772l87.353994 93.241589a33.149721 33.149721 0 0 1 0 45.24489 28.79802 28.79802 0 0 1-42.365087 0.511965z"  horiz-adv-x="1024" />

    
    <glyph glyph-name="renli_pressed" unicode="&#59207;" d="M444.928 4.235636l46.545455-43.287272 46.545454 43.287272-25.879273 192.605091 20.712728 43.333818H460.427636l20.712728-48.128-36.212364-187.810909zM812.730182-81.454545H194.932364c-16.477091 0-32.954182 5.492364-46.685091 19.316363-10.984727 13.777455-19.223273 27.554909-16.477091 46.871273 5.492364 157.184 35.700364 187.531636 46.685091 195.816727 24.715636 24.808727 54.923636 41.332364 90.624 55.109818l19.223272 8.285091c21.969455 8.285091 43.938909 19.316364 63.162182 27.601455l2.746182 2.746182 2.746182 2.792727c2.746182 2.699636 5.492364 2.699636 8.238545 5.492364 2.699636 0 2.699636 2.746182 2.699637 2.746181v41.378909c-19.176727 24.808727-27.461818 49.617455-35.653818 71.68l-2.792728 2.792728c0 2.746182-2.699636 2.746182-2.699636 5.492363-5.492364 5.492364-8.238545 11.031273-13.730909 16.523637-2.792727 5.538909-2.792727 8.285091-5.492364 11.031272-10.984727 22.062545-13.730909 44.125091-8.238545 63.441455 0 5.538909 2.746182 13.777455 8.238545 22.062545 2.746182 2.792727 2.746182 5.492364-2.792727 19.316364v8.238546c-5.445818 38.632727-10.938182 80.011636 0 124.136727 13.777455 57.902545 52.224 96.488727 107.101091 115.805091a226.210909 226.210909 0 0 0 120.832 8.285091c21.969455-5.538909 43.938909-13.777455 57.669818-27.601455 54.923636-13.777455 90.577455-55.156364 96.069818-115.805091 5.492364-38.632727 2.792727-79.965091-8.238545-129.629091 13.730909-24.808727 8.238545-46.871273 5.492363-68.887272a107.147636 107.147636 0 0 0-30.208-55.20291c-8.238545-30.347636-19.223273-52.410182-32.954181-71.68v-38.632727c0-2.792727 0-5.492364 5.492363-8.285091l41.192727-24.808727c8.238545-2.746182 19.223273-8.285091 30.254546-13.777455 21.922909-8.285091 43.892364-16.570182 63.115636-27.554909 49.431273-27.601455 79.592727-63.441455 93.370182-110.312727 2.699636-5.538909 2.699636-11.031273 2.699636-16.570182v-126.836363c0-11.031273-5.445818-22.062545-13.684363-33.093819-8.238545-2.792727-19.223273-8.285091-30.254546-8.28509z m115.293091 66.187636h-107.054546v55.156364h96.069818V144.663273c-8.238545 30.347636-27.461818 52.410182-60.416 68.980363-16.430545 8.238545-35.653818 16.523636-54.923636 24.808728-10.938182 2.746182-19.176727 8.238545-30.161454 13.777454-16.477091 8.285091-30.208 16.523636-43.93891 24.808727-24.669091 16.570182-30.208 38.632727-30.208 52.410182v41.378909c0 2.746182 0 13.777455 8.238546 22.062546 10.984727 13.777455 16.477091 30.301091 24.715636 52.363636 2.746182 8.285091 5.492364 16.570182 10.984728 22.062546l2.746181 2.792727a42.077091 42.077091 0 0 1 13.730909 24.808727c2.746182 13.777455 2.746182 22.062545 0 27.554909-5.492364 11.031273-5.492364 19.316364-5.492363 24.808728v5.538909c10.984727 41.378909 13.730909 71.68 8.238545 102.027636-5.492364 33.093818-21.969455 55.156364-49.431272 60.695273-8.238545 2.746182-16.477091 11.031273-16.477091 13.777454-8.238545 8.285091-16.477091 13.777455-24.669091 13.777455-49.477818 2.792727-63.162182-5.492364-71.400728-11.031273-5.492364-2.792727-13.730909-8.285091-21.969454-8.285091l-8.238546 55.156364 2.746182 2.792727c16.477091 11.031273 41.146182 22.062545 101.562182 19.269818 19.223273 0 41.192727-11.031273 57.669818-27.554909 49.431273-13.777455 82.385455-52.410182 90.624-107.52 5.492364-35.886545 2.746182-74.472727-8.238545-118.644363 10.984727-22.062545 8.238545-44.078545 5.492363-63.39491-5.492364-22.062545-13.730909-38.632727-27.461818-52.410181-8.238545-27.554909-16.477091-49.617455-30.254545-66.187637v-35.84c0-2.792727 0-2.792727 2.792727-5.538909 13.730909-8.238545 24.669091-16.523636 38.446546-22.062545 8.238545-2.746182 16.477091-8.238545 27.461818-11.031273 19.223273-8.238545 38.4-16.523636 60.369454-27.554909 46.685091-27.601455 76.893091-60.648727 87.877818-107.52v-121.390546c0-11.031273-5.492364-24.808727-13.730909-33.047272-10.984727-11.077818-21.969455-16.570182-35.700363-16.570182z m-878.592 0c-13.730909 0-24.715636 5.492364-35.700364 13.777454S0 20.573091 0 34.350545c2.746182 104.820364 16.477091 168.261818 43.938909 195.816728 24.669091 22.062545 52.130909 38.632727 85.085091 52.410182l16.477091 5.492363c19.223273 8.285091 38.446545 16.570182 57.716364 27.601455l2.699636 2.746182 2.792727 2.792727c5.445818 0 8.192 0 10.938182 2.699636v38.632727c-16.477091 24.808727-27.461818 46.871273-32.954182 66.187637 0 0 0 2.792727-2.746182 2.792727l-2.746181 2.699636c-5.492364 5.538909-10.984727 11.031273-13.73091 19.316364-10.984727 22.062545-13.730909 44.125091-10.984727 63.441455 0 5.492364 2.792727 13.777455 8.238546 22.062545 0 2.746182 0 2.746182-2.746182 16.523636v5.53891c-5.492364 38.632727-10.984727 77.218909 0 121.344 10.984727 52.363636 46.685091 88.250182 98.862545 107.52A197.12 197.12 0 0 0 373.387636 798.254545c13.730909-2.792727 27.461818-8.285091 41.192728-16.523636v-2.792727h2.792727v-2.746182l5.445818-35.84h-2.746182l-35.700363-8.285091c-8.238545 5.538909-16.477091 8.285091-24.669091 11.031273-27.461818 5.538909-57.716364 2.792727-85.178182-5.492364-35.653818-11.031273-57.623273-35.84-65.861818-68.980363-8.238545-33.047273-5.492364-63.394909 0-96.488728v-2.792727c2.792727-13.777455 8.238545-35.84-5.492364-57.902545v-2.746182c-2.746182-8.285091 0-19.316364 5.492364-27.554909 2.792727-2.792727 5.492364-5.538909 8.238545-11.031273l8.238546-8.285091 5.492363-8.285091c0-2.792727 2.746182-5.492364 2.746182-8.285091 8.238545-24.808727 16.477091-41.332364 27.461818-55.156363 8.238545-8.238545 8.238545-19.269818 8.238546-22.062546v-44.125091c0-13.777455-2.792727-30.301091-24.715637-46.871273-2.746182-2.746182-2.746182-2.746182-5.492363-2.746181-5.492364-2.792727-10.984727-8.285091-16.477091-11.031273-19.223273-11.031273-41.192727-19.316364-60.416-27.601455l-16.477091-8.238545a239.848727 239.848727 0 0 1-68.608-41.378909c-10.984727-11.031273-24.715636-60.648727-27.461818-148.945455h101.562182v-55.109818l-101.562182 2.746182z"  horiz-adv-x="1024" />

    
    <glyph glyph-name="renli_normal" unicode="&#59208;" d="M439.621818 841.541818a272.523636 272.523636 0 0 0 120.552727 2.234182l12.427637-3.304727c2.792727-0.837818 5.585455-1.675636 8.238545-2.56 24.296727 8.238545 53.527273 11.450182 91.834182 9.634909 26.437818 0 53.527273-10.798545 76.241455-28.485818l4.980363-4.235637 7.586909-2.606545c61.021091-22.667636 110.685091-70.004364 123.578182-130.187637l1.675637-9.076363c5.725091-37.562182 3.909818-77.079273-5.306182-120.459637l-0.418909-1.675636 1.489454-5.306182c3.444364-14.661818 2.885818-29.184-0.232727-47.662545l-3.490909-19.130182-0.232727-1.396364-0.93091-4.654545c-5.632-22.807273-13.963636-41.890909-26.112-58.368l-4.794181-5.957818-2.653091-8.843637c-3.351273-10.845091-6.516364-20.154182-9.960728-28.392727l-1.954909-4.282182 7.121455-10.658909 13.079273-10.100363c0.232727-0.232727 0.093091-0.232727-0.372364-0.046546 6.842182-2.327273 11.869091-4.933818 16.896-8.424727l4.049455-3.025455 2.839272-0.977454c7.447273-3.258182 13.730909-6.423273 20.48-10.379637l6.981818-4.282181 16.523637-10.24c3.025455-1.722182 4.980364-2.699636 10.193454-5.352728 51.013818-30.161455 74.379636-65.722182 90.018909-125.533091l4.049455-16.756363v-126.696728c0-23.458909-10.472727-49.012364-27.275636-65.908363-17.361455-17.454545-37.096727-27.787636-59.950546-29.882182l-8.750545-0.372364h-10.798546c-3.770182-12.567273-10.426182-24.529455-19.316363-36.445091l-8.704-11.682909-13.824-4.654545-15.36-5.585455a89.832727 89.832727 0 0 0-29.602909-5.073454H212.619636c-29.789091 0-57.716364 10.984727-79.639272 33.047273l-3.444364 3.816727a151.179636 151.179636 0 0 0-17.408 26.530909h-16.151273l-8.750545 0.465454c-22.853818 2.048-42.589091 12.381091-59.950546 29.789091A97.373091 97.373091 0 0 0 0 34.397091v126.743273l4.049455 16.756363c15.639273 59.764364 39.005091 95.325091 90.018909 125.486546 5.213091 2.653091 7.168 3.630545 10.193454 5.352727l16.523637 10.24 6.981818 4.282182c6.749091 3.956364 13.032727 7.168 20.48 10.379636l2.839272 0.977455 4.049455 3.025454c5.026909 3.490909 10.053818 6.097455 16.896 8.378182-0.465455-0.139636-0.605091-0.139636-0.372364 0.093091l13.079273 10.100364 7.121455 10.658909-1.954909 4.235636a316.741818 316.741818 0 0 0-9.960728 28.439273l-2.653091 8.843636-4.794181 5.957818c-12.101818 16.477091-20.48 35.560727-26.158546 58.321455l-0.930909 4.701091-0.186182 1.396363-3.490909 19.083637c-3.118545 18.525091-3.723636 33.047273-0.232727 47.709091l1.489454 5.306182-0.465454 1.675636c-9.169455 43.380364-10.984727 82.850909-5.259637 120.459636l1.675637 9.076364C151.831273 742.213818 201.495273 789.550545 262.516364 812.218182l7.586909 2.606545 4.980363 4.189091c22.667636 17.687273 49.803636 28.532364 76.241455 28.532364 34.210909 1.582545 61.207273-0.791273 83.921454-7.168z m89.367273-86.760727a181.573818 181.573818 0 0 1-84.014546-8.704c-41.890909-14.708364-67.584-42.030545-77.358545-83.176727-6.190545-24.808727-6.516364-46.545455-2.001455-84.154182l2.932364-22.109091 0.418909-6.283636 1.303273-3.677091c6.423273-19.316364 6.749091-33.047273-4.189091-47.941819l-2.606545-3.211636v-1.582545l-1.722182-6.237091c-2.187636-7.68-0.884364-17.92 5.12-29.975273l-1.442909 3.165091 2.048-3.258182 1.349818-2.56 1.768727-4.049454 6.516364-8.471273 13.870545-13.917091-0.046545-4.375273 5.771636-15.36c10.007273-26.484364 14.289455-35.607273 22.900364-47.290182l2.746182-3.584 9.774545-12.660363v-57.250909a49.012364 49.012364 0 0 0-25.506909-43.287273l-1.070546-0.512-1.582545-0.977455-8.192-8.238545-12.334545-5.352727-33.652364-15.220364c-5.12-2.327273-9.681455-4.282182-13.870546-6.050909l-11.543272-4.514909-20.852364-8.936727c-33.419636-12.893091-56.506182-26.624-74.379636-44.590546l-4.980364-4.328727c-1.117091-0.837818-3.025455-3.397818-6.004364-10.752l-3.351272-9.122909c-9.634909-28.299636-16.477091-74.007273-18.804364-140.381091l-0.465454-5.678546c0.046545-1.536 1.303273-3.630545 6.842181-10.565818l-0.418909 1.303273c2.048-1.442909 4.235636-2.327273 6.702546-2.746182l3.956363-0.325818 615.144728 0.046545V90.763636l-0.837819 2.234182c-9.309091 31.883636-28.718545 56.506182-62.370909 77.405091l-9.495272 5.585455a243.432727 243.432727 0 0 1-33.186909 15.499636l-23.179637 8.890182-4.514909 2.001454c-8.052364 4.049455-13.498182 6.702545-17.408 8.471273l-6.656 2.792727-9.262545 4.235637-38.027637 23.086545a56.785455 56.785455 0 0 0-21.271272 17.780364 48.686545 48.686545 0 0 0-9.914182 32.116363v53.434182l8.610909 12.101818c11.496727 16.151273 19.595636 33.512727 25.972363 56.925091l3.258182 11.915637 8.704 8.750545c9.448727 9.495273 14.661818 18.618182 16.756364 26.158546L657.221818 477.090909c1.861818 14.894545 1.303273 19.595636-2.048 25.6l-8.517818 15.406546 3.816727 17.221818c9.914182 44.776727 12.194909 80.570182 7.307637 115.339636l-0.930909 7.912727c-5.585455 35.84-26.344727 58.461091-60.136728 66.978909l-12.567272 3.118546-9.076364 9.169454c-4.980364 4.980364-17.454545 10.612364-36.026182 15.26691l0.930909-0.232728z m22.481454-468.061091l-20.712727-43.287273 25.879273-192.651636-46.545455-43.287273-46.545454 43.287273 36.212363 187.810909-20.712727 48.128h72.424727z m182.597819 436.270545l1.396363-3.118545c6.562909-14.987636 11.170909-31.232 13.591273-48.500364l2.885818-24.855272c3.770182-40.029091 0.186182-82.385455-10.612363-131.351273l3.16509 15.732364 2.187637-6.004364c5.492364-17.221818 5.818182-34.071273 3.165091-56.692364l-1.256728-10.053818-1.768727-11.915636c-5.492364-24.669091-15.266909-45.056-29.463273-63.022546l-4.654545-5.585454-0.791273-2.792728c-5.911273-18.432-13.032727-34.862545-21.643636-50.176l-5.538909-9.122909v-3.351272l20.154182-12.148364 5.632-2.280727c2.513455-1.070545 5.213091-2.327273 8.285091-3.723637l14.661818-7.214545 8.052363-3.118546c25.320727-9.634909 39.424-15.685818 53.946182-23.598545l5.445818-3.072c59.578182-33.28 98.024727-78.661818 115.339637-137.867636l-1.070546 3.304727 0.605091-1.396364c1.489455-3.770182 2.606545-7.633455 3.444364-11.589818l0.930909-5.911273c0.605091-4.840727 0.698182-8.005818 0.698182-14.056727v-58.228364h7.214545s0.232727 0.372364 2.653091 2.839273c-0.372364-0.418909-0.186182 0.279273 0 0.512l0.186182-0.279273v115.712l-0.977455 4.096c-8.936727 34.676364-18.432 50.408727-39.144727 64.093091l-5.445818 3.397819a265.355636 265.355636 0 0 0-18.711273 10.379636l-12.427636 7.773091a150.807273 150.807273 0 0 1-8.145455 4.840727l-5.259636 2.606546-1.396364 0.418909a69.445818 69.445818 0 0 0-16.849454 8.378181l-4.980364 3.630546-5.259636 2.327273a102.865455 102.865455 0 0 0-13.498182 8.052363l-6.795636 5.026909-10.426182 7.959273-6.656 4.002909-7.307637 7.447273c-1.582545 1.861818-2.420364 2.746182-3.397818 4.189091l-4.421818 7.261091-2.187636 4.840727-38.4 57.530182 22.155636 26.717091c3.816727 4.561455 7.168 11.682909 11.636364 25.460363l10.752 35.514182 8.285091 8.331637a54.458182 54.458182 0 0 1 13.312 23.784727l1.442909 5.213091 3.956363 21.597091c0.930909 6.050909 0.930909 8.843636 0.465455 10.658909l-0.418909 0.930909-7.633455 15.36 4.142546 16.663273c9.588364 38.632727 11.869091 71.074909 7.354181 100.44509-3.770182 25.506909-28.16 50.362182-60.602181 64z m-456.890182-38.074181c3.165091 13.405091 7.447273 26.112 12.753454 38.074181-32.442182-13.591273-56.785455-38.493091-60.602181-64-4.514909-29.370182-2.234182-61.858909 7.354181-100.44509l4.142546-16.616728-7.633455-15.36-0.372363-0.977454c-0.558545-1.815273-0.512-4.654545 0.418909-10.705455l3.956363-21.550545 1.396364-5.213091c3.397818-10.845091 7.540364-17.966545 13.358545-23.784727l8.285091-8.331637 10.705455-35.514182c4.514909-13.777455 7.866182-20.898909 11.636364-25.460363l22.202181-26.717091-38.4-57.530182-2.187636-4.840727-4.421818-7.261091a39.749818 39.749818 0 0 0-3.397818-4.189091l-7.307637-7.447273-6.656-4.002909-10.426182-7.959273-6.74909-5.026909a102.865455 102.865455 0 0 0-13.498182-8.005818l-5.306182-2.373818-4.980364-3.630546c-5.12-3.490909-10.519273-6.237091-16.802909-8.378181l-1.442909-0.418909-5.259636-2.606546a150.807273 150.807273 0 0 1-8.145455-4.840727l-12.427636-7.773091c-6.097455-3.723636-12.101818-6.981818-18.711273-10.379636l-5.445818-3.397819c-20.712727-13.684364-30.208-29.416727-39.098182-64.093091L93.090909 150.062545v-115.712c0.372364 0.046545 0.558545-0.651636 0.186182-0.232727 3.025455-3.072 2.56-2.839273 2.699636-2.839273h9.169455c7.307636 104.448 27.275636 159.092364 58.973091 185.949091l1.489454 1.256728 7.168 6.795636c22.946909 20.666182 49.664 36.677818 81.594182 50.269091l13.963636 5.632 21.224728 9.076364c8.517818 3.211636 17.454545 7.028364 29.789091 12.613818l19.688727 9.029818v2.373818l-1.861818 2.746182c-10.100364 15.266909-16.477091 29.789091-27.136 57.949091l-0.232728 0.465454-9.169454 9.262546-0.046546 4.654545-2.187636 2.932364-6.050909 6.190545-5.166545 10.705455-0.279273 0.325818-3.351273 6.749091c-15.872 31.837091-20.247273 65.722182-11.357091 96.907636l-1.442909-5.818181 1.117091 6.981818c0.930909 4.654545 2.327273 9.309091 4.096 13.870545l0.884364 2.187637-0.930909 2.466909-0.046546 14.242909-1.396364 10.472727c-6.609455 49.896727-7.307636 81.314909 0.372364 117.341091z"  horiz-adv-x="1024" />

    
    <glyph glyph-name="queren" unicode="&#59204;" d="M459.922323 110.372401a50.541678 50.541678 0 0 0-35.839974 14.628561l-197.485574 195.437575a49.81025 49.81025 0 0 0 0 70.948521 50.980535 50.980535 0 0 0 71.679949 0l161.645599-160.036458 415.889989 411.647706a50.980535 50.980535 0 0 0 71.606806 0 49.883393 49.883393 0 0 0 0-70.94852L495.689155 125.074105a50.468535 50.468535 0 0 0-35.766832-14.628561zM512-128c-282.331227 0-511.999634 229.668407-511.999634 511.999634s229.668407 511.999634 511.999634 511.999635a509.80535 509.80535 0 0 0 281.89237-84.47994 38.911972 38.911972 0 1 0-21.503985-71.606806 38.765687 38.765687 0 0 0-21.503984 6.436567A431.981406 431.981406 0 0 1 512 818.029039 434.468261 434.468261 0 0 1 78.043739 383.999634 434.468261 434.468261 0 0 1 512-49.956627 434.468261 434.468261 0 0 1 945.956261 383.999634c0 15.140561-0.731428 30.207978-2.267426 45.275397a38.985115 38.985115 0 0 0 34.742832 42.78854 38.911972 38.911972 0 0 0 42.788541-34.815975A512.584777 512.584777 0 0 0 512-128h0.073143z"  horiz-adv-x="1024" />

    
    <glyph glyph-name="quanping" unicode="&#59203;" d="M576 640h146.88L493.12 410.24A80 80 0 0 1 464 416H80a80 80 0 0 1-80-80v-384a80 80 0 0 1 80-80h384a80 80 0 0 1 80 80V336a80 80 0 0 1-5.76 29.12L768 594.88V448h64V704H576z m-96-688a16.32 16.32 0 0 0-16-16H80a16.32 16.32 0 0 0-16 16V336a16.32 16.32 0 0 0 16 16h384a16.32 16.32 0 0 0 16-16zM0 544h64v-64H0z m0 128h64v-64H0z m960-128h64v-64h-64z m0 128h64v-64h-64z m0-384h64v-64h-64z m0-128h64v-64h-64z m0 256h64v-64h-64zM64 832h96V896H0v-160h64V832zM224 896h64v-64h-64z m128 0h64v-64h-64z m128 0h64v-64h-64z m128 0h64v-64h-64z m128 0h64v-64h-64zM608-64h64v-64h-64z m128 0h64v-64h-64zM864 896v-64h96v-96h64V896H864z m96-960h-96v-64h160V32h-64v-96z"  horiz-adv-x="1024" />

    
    <glyph glyph-name="fanhui" unicode="&#59202;" d="M347.648 360.192a48 48 0 0 0 4.608-62.528l-4.608-5.376a48 48 0 0 0-62.528-4.608l-5.376 4.608L30.08 541.952a48 48 0 0 0-4.672 62.528l4.672 5.376L279.68 859.52a48 48 0 0 0 72.576-62.464l-4.608-5.376L179.84 624H672a336 336 0 0 0 13.824-671.744l-13.824-0.256H256a48 48 0 0 0-6.528 95.552L256 48h416a240 240 0 0 1 12.8 479.68l-12.8 0.32H179.776l167.872-167.808z"  horiz-adv-x="1024" />

    
    <glyph glyph-name="yishoucang" unicode="&#59196;" d="M896.00032 896a64 64 0 0 0 64-64v-875.072a64 64 0 0 0-81.664-61.44L531.58432-5.12a64 64 0 0 1-35.2 0l-350.848-99.776A64 64 0 0 0 64.00032-43.264V832a64 64 0 0 0 64 64h768zM656.00032 640h-288a48 48 0 0 1 0-96h288a48 48 0 0 1 0 96z"  horiz-adv-x="1024" />

    
    <glyph glyph-name="yizan" unicode="&#59197;" d="M208.256 544.384L208.192-128H97.664c-55.232 0-96.64 41.472-96.64 96.256V445.952c0 55.296 41.408 96.768 96.64 96.768h84.928c8.832 0 17.408 0.576 25.6 1.664zM594.816 896c55.232 0 101.76-20.992 135.04-60.928 17.344-23.552 34.24-52.224 27.072-89.088a818.816 818.816 0 0 0-23.808-89.152l-37.568-88h167.808c53.12 0 101.248-20.48 128.32-54.272 29.696-37.376 39.424-85.504 27.136-135.168l-91.52-398.848a126.08 126.08 0 0 0-36.864-69.632c-27.072-25.6-64.96-38.912-112.512-38.912H304.192V587.52c50.88 41.6 89.344 107.2 129.024 174.848 1.536 2.56 12.8 25.6 19.904 33.28C471.04 830.976 504.32 896 594.816 896z"  horiz-adv-x="1024" />

    
    <glyph glyph-name="shoucang" unicode="&#59198;" d="M896.00032 896a64 64 0 0 0 64-64v-875.072a64 64 0 0 0-81.664-61.44L531.58432-5.12a64 64 0 0 1-35.2 0l-350.848-99.776A64 64 0 0 0 64.00032-43.264V832a64 64 0 0 0 64 64h768z m-32-96h-704v-800.832l310.208 88.192a160 160 0 0 0 75.52 2.88l12.352-3.008 305.92-87.808V800zM656.00032 640a48 48 0 0 0 0-96h-288a48 48 0 0 0 0 96h288z"  horiz-adv-x="1024" />

    
    <glyph glyph-name="pingfenxianxing" unicode="&#59199;" d="M515.614118 896l201.065411-265.336471 314.488471-109.266823-190.162824-273.227294-6.746352-332.860236-318.644706 96.376471-318.644706-96.376471-6.806588 332.860236L0 521.336471l314.428235 109.266823L515.614118 896z m145.588706-341.714824L515.614118 746.435765l-145.648942-192.150589-227.689411-79.028705 137.697882-197.933177 4.818824-241.001412 230.821647 69.872942 230.701176-69.872942 4.879059 241.001412 137.697882 197.933177-227.689411 79.028705z"  horiz-adv-x="1084" />

    
    <glyph glyph-name="dianzan1" unicode="&#59200;" d="M594.816 896c55.232 0 101.76-20.992 135.04-60.928 17.344-23.552 34.24-52.224 27.072-89.088a818.816 818.816 0 0 0-23.808-89.152l-37.568-88h167.808c53.12 0 101.248-20.48 128.32-54.272 29.696-37.376 39.424-85.504 27.136-135.168l-91.52-398.848a126.08 126.08 0 0 0-36.864-69.632c-27.072-25.6-64.96-38.912-112.512-38.912H97.664c-55.232 0-96.64 41.472-96.64 96.256V445.952c0 55.296 41.408 96.768 96.64 96.768h84.928c108.16 0 169.92 84.544 228.608 182.4l22.016 37.248c1.536 2.56 12.8 25.6 19.904 33.28l5.888 11.392C478.208 843.328 513.344 896 594.816 896zM196.864 446.976l-14.272-0.256H97.664l-0.896 0.192 0.256-0.96v-477.696l0.64-0.256h110.528V447.488a397.12 397.12 0 0 0-11.328-0.512zM594.816 800c-24.768 0-34.88-7.744-51.712-39.36l-10.496-20.48-5.504-5.888-11.072-20.48-21.632-36.224c-67.712-111.552-120.96-176.64-190.144-207.872L304.192-32h473.728c24.128 0 38.4 4.928 45.952 12.16a31.04 31.04 0 0 1 8.512 15.808l1.28 6.08 91.968 400.384c5.248 21.248 1.728 38.784-8.832 52.032-6.848 8.576-23.168 16.192-44.16 17.92l-9.28 0.448H550.272l92.672 217.408 4.8 14.976c3.712 12.416 7.168 25.344 10.368 38.72l4.608 20.352c-0.128-0.704-0.896 1.28-6.656 9.344-14.72 17.664-34.048 26.368-61.248 26.368z"  horiz-adv-x="1024" />

    
    <glyph glyph-name="xiazai1" unicode="&#59201;" d="M976 316.8a48 48 0 0 0 48-48l-0.192 3.2H1024v-256a128 128 0 0 0-128-128H128a128 128 0 0 0-128 128v256a48 48 0 0 0 96-3.2l-0.192 3.2H96v-256a32 32 0 0 1 26.24-31.488l5.76-0.512h768a32 32 0 0 1 31.488 26.24l0.512 5.76v256c1.728 24.96 22.592 44.8 48 44.8zM513.6 896a48 48 0 0 0 47.552-41.472l0.448-6.528-0.064-554.176 140.096 140.16a48 48 0 0 0 62.528 4.608l5.376-4.672a48 48 0 0 0 4.608-62.464l-4.608-5.376-223.616-223.616a48 48 0 0 0-62.464-4.608l-5.376 4.608L254.464 366.08a48 48 0 0 0 62.528 72.512l5.376-4.672 143.168-143.168L465.6 848a48 48 0 0 0 48 48z"  horiz-adv-x="1024" />

    
    <glyph glyph-name="dingyue_default" unicode="&#59188;" d="M977.454545 896v-1024l-464.197818 139.636364L46.545455-128V896h930.90909z m-93.090909-93.090909H139.636364v-805.841455l373.76 111.755637L884.363636-2.746182V802.909091z m-372.363636-139.636364l68.421818-138.565818 152.901818-22.248727-110.638545-107.892364 26.065454-152.296727L512 314.181818l-136.797091-71.912727 26.112 152.296727-110.638545 107.892364 152.948363 22.248727L512 663.272727z"  horiz-adv-x="1024" />

    
    <glyph glyph-name="dingyue_pressed" unicode="&#59189;" d="M977.454545 896v-1024l-464.197818 139.636364L46.545455-128V896h930.90909zM512 663.272727L443.578182 524.706909l-152.901818-22.248727 110.638545-107.892364-26.065454-152.296727L512 314.181818l136.797091-71.912727-26.112 152.296727 110.638545 107.892364-152.948363 22.248727L512 663.272727z"  horiz-adv-x="1024" />

    
    <glyph glyph-name="changjianwenti" unicode="&#59190;" d="M512.04064 896a511.99392 511.99392 0 1 0-212.797473-977.780389H80.87776a34.623589 34.623589 0 0 0-34.623589 34.623589v218.365407A511.99392 511.99392 0 0 0 512.04064 896z m0-69.311177a442.682743 442.682743 0 0 1-399.867252-632.952484 34.431591 34.431591 0 0 0 3.39196-14.847823v-191.357728h191.357728c5.119939 0 10.239878-1.215986 14.911823-3.39196A442.682743 442.682743 0 1 1 512.04064 826.752822z m0-612.088731a46.207451 46.207451 0 1 0 0-92.350904 46.207451 46.207451 0 1 0 0 92.350904z m3.839954 461.946514c95.358868 0 173.245943-74.623114 173.245943-167.486011 0-64.511234-25.407698-96.958849-84.606995-136.702377l-5.247938-3.455959c-38.783539-26.047691-48.767421-38.207546-48.767421-65.727219a34.623589 34.623589 0 0 0-69.247177 0c0 57.215321 23.231724 85.566984 79.423056 123.262536l5.183939 3.455959c41.983501 28.159666 53.951359 43.519483 53.951359 79.16706 0 53.88736-46.207451 98.238833-103.934766 98.238833-57.727314 0-103.934766-44.351473-103.934765-98.238833a34.623589 34.623589 0 0 0-69.311177 0c0 92.798898 77.887075 167.486011 173.245942 167.486011z"  horiz-adv-x="1024" />

    
    <glyph glyph-name="zixun_default" unicode="&#59191;" d="M93.090909-128a93.090909 93.090909 0 0 0-93.090909 93.090909V802.909091a93.090909 93.090909 0 0 0 93.090909 93.090909h605.090909a93.090909 93.090909 0 0 0 93.090909-93.090909v-186.181818h232.727273v-605.090909a139.636364 139.636364 0 0 0-139.636364-139.636364H93.090909zM698.181818 802.909091H93.090909v-837.818182h605.090909V802.909091z m232.727273-279.272727h-139.636364v-558.545455h93.090909a46.545455 46.545455 0 0 1 46.219637 41.099636L930.909091 11.636364V523.636364z m-372.363636-186.181819v-93.090909H232.727273v93.090909h325.818182z m0 232.727273v-93.090909H232.727273V570.181818h325.818182z"  horiz-adv-x="1024" />

    
    <glyph glyph-name="fabanjilu" unicode="&#59192;" d="M960 896a64 64 0 0 0 64-64v-896a64 64 0 0 0-64-64H448a64 64 0 0 0-64 64v64H192a64 64 0 0 0-64 64v128H64a64 64 0 0 0-64 64V576a64 64 0 0 0 64 64h64V704a64 64 0 0 0 64 64h192V832a64 64 0 0 0 64 64h512z m0-64H448v-896h512V832zM384 704H192v-640h192V704zM128 576H64v-320h64V576z"  horiz-adv-x="1024" />

    
    <glyph glyph-name="zixun_pressed" unicode="&#59193;" d="M93.090909-128a93.090909 93.090909 0 0 0-93.090909 93.090909V802.909091a93.090909 93.090909 0 0 0 93.090909 93.090909h605.090909a93.090909 93.090909 0 0 0 93.090909-93.090909v-186.181818h232.727273v-605.090909a139.636364 139.636364 0 0 0-139.636364-139.636364H93.090909zM930.909091 523.636364h-139.636364v-558.545455h93.090909a46.545455 46.545455 0 0 1 46.219637 41.099636L930.909091 11.636364V523.636364z m-372.363636-186.181819H232.727273v-93.090909h325.818182v93.090909z m0 232.727273H232.727273v-93.090909h325.818182V570.181818z"  horiz-adv-x="1024" />

    
    <glyph glyph-name="guanggao_default" unicode="&#59194;" d="M826.495704 837.804224l128.274508-317.406129-1.395805 0.325688A93.053688 93.053688 0 0 0 1024.327844 430.322126v-465.268438a93.053688 93.053688 0 0 0-93.053688-93.053688H233.371499a93.053688 93.053688 0 0 0-93.053688 93.053688v211.324924L6.78577 506.62615a93.053688 93.053688 0 0 0 51.458689 121.109374L705.339803 889.262913a93.053688 93.053688 0 0 0 121.155901-51.458689zM931.274156 430.322126H233.371499v-465.268438h697.902657V430.322126z m-153.445531-189.503835l34.895133-86.260769-329.270473-133.25288-34.895133 86.260768 329.270473 133.252881z m-116.317109 133.252881l34.895133-86.260769-329.270474-133.252881-34.895133 86.260769 329.270474 133.252881z m78.723419 428.884446L93.139592 541.521282l47.131693-116.782378L140.317811 430.322126a93.053688 93.053688 0 0 0 93.053688 93.053687h619.73756l-112.874124 279.626332z"  horiz-adv-x="1024" />

    
    <glyph glyph-name="guanggao_pressed" unicode="&#59195;" d="M6.818785 506.771078a92.999938 92.999938 0 0 0 51.382465 121.08592L704.969321 889.140325a92.999938 92.999938 0 0 0 121.08592-51.382466l128.200414-317.26929-1.394999 0.372a92.999938 92.999938 0 0 0 70.912453-90.39594v-464.999691a92.999938 92.999938 0 0 0-92.999938-92.999938h-697.499537a92.999938 92.999938 0 0 0-92.999938 92.999938l-0.0465 211.20286-133.361911 330.14978z m770.504488-265.700823L448.289491 107.894343l34.874977-86.210942 329.080282 133.175911-34.874977 86.210943z m-116.249923 133.175911L332.039569 241.070255l34.874976-86.210943 329.080282 133.222412-34.874977 86.164442zM739.797798 802.929382L93.076227 541.599555l47.104469-116.668422v5.579996a92.999938 92.999938 0 0 0 92.999938 92.999938h697.499537-78.073448l-112.855425 279.371815z"  horiz-adv-x="1024" />

    
    <glyph glyph-name="dianziqianyue1" unicode="&#59182;" d="M896 896a64 64 0 0 0 64-64v-896a64 64 0 0 0-64-64H128a64 64 0 0 0-64 64V832a64 64 0 0 0 64 64h768z m0-64H128v-896h768V832z m-224-640a32 32 0 1 0 0-64h-320a32 32 0 1 0 0 64h320z m11.648 491.648a32 32 0 0 0 0-45.248l-316.8-316.8a32 32 0 1 0-45.248 45.248l316.8 316.8a32 32 0 0 0 45.248 0z"  horiz-adv-x="1024" />

    
    <glyph glyph-name="guidangguanli_normal1" unicode="&#59183;" d="M884.363636 616.727273a139.636364 139.636364 0 0 0 139.636364-139.636364v-465.454545a139.636364 139.636364 0 0 0-139.636364-139.636364H139.636364a139.636364 139.636364 0 0 0-139.636364 139.636364V477.090909a139.636364 139.636364 0 0 0 139.636364 139.636364h744.727272z m0-93.090909H139.636364a46.545455 46.545455 0 0 1-46.219637-41.099637L93.090909 477.090909v-465.454545a46.545455 46.545455 0 0 1 41.099636-46.219637L139.636364-34.909091h744.727272a46.545455 46.545455 0 0 1 46.219637 41.099636L930.909091 11.636364V477.090909a46.545455 46.545455 0 0 1-41.099636 46.219636L884.363636 523.636364z m-232.727272-232.727273a46.545455 46.545455 0 0 0 0-93.090909H372.363636a46.545455 46.545455 0 0 0 0 93.090909h279.272728z m232.727272 465.454545a46.545455 46.545455 0 0 0 0-93.090909H139.636364a46.545455 46.545455 0 1 0 0 93.090909h744.727272z m-93.090909 139.636364a46.545455 46.545455 0 0 0 0-93.090909H232.727273a46.545455 46.545455 0 1 0 0 93.090909h558.545454z"  horiz-adv-x="1024" />

    
    <glyph glyph-name="dianziqianzhangmoban" unicode="&#59184;" d="M617.152 896H0v-1024h960V576S632.512 896 617.152 896z m205.696-256h-137.152V768l137.152-128z m68.608-704H68.48V832h548.608v-256h274.304v-640z m-137.152 192H137.152v64h617.152v-64zM342.848 512H137.152V576h205.696v-64z m205.696-192H137.152V384H548.48v-64z"  horiz-adv-x="1024" />

    
    <glyph glyph-name="guidangguanli_pressed1" unicode="&#59185;" d="M884.363636 616.727273a139.636364 139.636364 0 0 0 139.636364-139.636364v-465.454545a139.636364 139.636364 0 0 0-139.636364-139.636364H139.636364a139.636364 139.636364 0 0 0-139.636364 139.636364V477.090909a139.636364 139.636364 0 0 0 139.636364 139.636364h744.727272z m-232.727272-325.818182H372.363636a46.545455 46.545455 0 0 1-5.445818-92.765091L372.363636 197.818182h279.272728a46.545455 46.545455 0 0 1 0 93.090909z m232.727272 465.454545a46.545455 46.545455 0 0 0 0-93.090909H139.636364a46.545455 46.545455 0 1 0 0 93.090909h744.727272z m-93.090909 139.636364a46.545455 46.545455 0 0 0 0-93.090909H232.727273a46.545455 46.545455 0 1 0 0 93.090909h558.545454z"  horiz-adv-x="1024" />

    
    <glyph glyph-name="biaodanmoban" unicode="&#59186;" d="M967.11616 772.032v-840.064H56.97216V772.032H967.05216M995.59616 832H28.42816A29.248 29.248 0 0 1 0.01216 801.984V-97.92c0-16.64 12.736-30.016 28.416-30.016h967.168c7.488 0 14.72 3.2 20.096 8.768a30.848 30.848 0 0 1 8.32 21.248V801.92A29.248 29.248 0 0 1 995.59616 832zM251.02016 560.192v-55.872H189.45216v55.872h61.44m30.784 55.872H158.73216a32.384 32.384 0 0 1-21.76-8.192 26.688 26.688 0 0 1-8.96-19.776v-111.744c0-7.424 3.2-14.528 8.96-19.776 5.76-5.248 13.632-8.192 21.76-8.192h123.008c16.96 0 30.72 12.544 30.72 27.968V588.096a26.688 26.688 0 0 1-8.96 19.776 32.384 32.384 0 0 1-21.76 8.192z m-30.72-280.128v-55.872H189.45216V336h61.44m30.784 55.872H158.73216a32.384 32.384 0 0 1-21.76-8.128 26.688 26.688 0 0 1-8.96-19.84v-111.68c0-7.424 3.2-14.528 8.96-19.84 5.76-5.184 13.632-8.128 21.76-8.128h123.008c16.96 0 30.72 12.48 30.72 27.968V363.904a26.688 26.688 0 0 1-8.96 19.776 32.384 32.384 0 0 1-21.76 8.128z m-30.72-280.064v-55.872H189.45216v55.872h61.44m30.784 55.872H158.73216a32.384 32.384 0 0 1-21.76-8.128 26.688 26.688 0 0 1-8.96-19.84v-111.68c0-7.424 3.2-14.528 8.96-19.84 5.76-5.184 13.632-8.128 21.76-8.128h123.008c16.96 0 30.72 12.48 30.72 27.968v111.744c0 15.36-13.76 27.904-30.72 27.904z m583.552 336.64H434.82816a31.424 31.424 0 0 0-26.624 14.016 25.728 25.728 0 0 0 0 27.904 31.424 31.424 0 0 0 26.624 14.016h430.464c10.944 0 21.12-5.312 26.624-14.016a25.728 25.728 0 0 0 0-27.904 31.424 31.424 0 0 0-26.624-13.952z m0-224.128H434.82816c-17.024 0-30.72 12.48-30.72 27.904s13.696 27.968 30.72 27.968h430.464c16.96 0 30.72-12.544 30.72-27.968s-13.76-27.904-30.72-27.904z m0-224.256H434.82816a31.424 31.424 0 0 0-26.624 13.952 25.728 25.728 0 0 0 0 27.968 31.424 31.424 0 0 0 26.624 13.952h430.464c10.944 0 21.12-5.312 26.624-13.952a25.728 25.728 0 0 0 0-27.968 31.424 31.424 0 0 0-26.624-13.952zM496.78016 896C429.32416 896 374.60416 853.952 374.60416 801.984h61.44c0 20.352 28.416 38.144 60.736 38.144 32.32 0 60.672-17.792 60.672-38.144h61.44C618.89216 853.952 564.23616 896 496.78016 896z"  horiz-adv-x="1024" />

    
    <glyph glyph-name="mobanguanli1" unicode="&#59187;" d="M832 896a128 128 0 0 0 128-128v-768a128 128 0 0 0-128-128H192a128 128 0 0 0-128 128V768a128 128 0 0 0 128 128h640zM320 832H192a64 64 0 0 1-63.552-56.512L128 768v-768a64 64 0 0 1 56.512-63.552L192-64h128V832z m576-320H384v-576h448a64 64 0 0 1 63.552 56.512L896 0V512z m-64 320H384v-256h512V768a64 64 0 0 1-56.512 63.552L832 832z"  horiz-adv-x="1024" />

    
    <glyph glyph-name="baomixieyi" unicode="&#59181;" d="M768 448a192 192 0 0 0 191.68-180.736L960 256a64 64 0 0 0 64-64v-256a64 64 0 0 0-64-64H576a64 64 0 0 0-64 64v256a64 64 0 0 0 64 64 192 192 0 0 0 192 192z m64 448a64 64 0 0 0 64-64v-256h-64V832H64v-832h256v-64H64a64 64 0 0 0-64 64V832a64 64 0 0 0 64 64h768z m128-704H576v-256h384v256z m-192 192a128 128 0 0 1-127.68-118.4L640 256h256a128 128 0 0 1-118.4 127.68L768 384zM416 384a32 32 0 0 0 0-64h-192a32 32 0 0 0 0 64h192z m256 256a32 32 0 1 0 0-64h-448a32 32 0 0 0 0 64h448z"  horiz-adv-x="1024" />

    
    <glyph glyph-name="qiyeliebiao" unicode="&#59175;" d="M512 896a128 128 0 0 0 128-128v-64h192a128 128 0 0 0 128-128v-320h-64V576a64 64 0 0 1-56.512 63.552L832 640h-192v-704h32a32 32 0 1 0 0-64H32a32 32 0 1 0 0 64H64V768a128 128 0 0 0 128 128h320z m480-960a32 32 0 1 0 0-64h-192a32 32 0 1 0 0 64h192zM512 832H192a64 64 0 0 1-63.552-56.512L128 768v-832h448V768a64 64 0 0 1-56.512 63.552L512 832z m480-768a32 32 0 1 0 0-64h-192a32 32 0 1 0 0 64h192z m0 128a32 32 0 1 0 0-64h-192a32 32 0 1 0 0 64h192z m-512 64a32 32 0 1 0 0-64h-256a32 32 0 1 0 0 64h256z m0 192a32 32 0 0 0 0-64h-256a32 32 0 0 0 0 64h256z m320 64a32 32 0 1 0 0-64h-64a32 32 0 1 0 0 64h64z m-320 128a32 32 0 0 0 0-64h-256a32 32 0 0 0 0 64h256z"  horiz-adv-x="1024" />

    
    <glyph glyph-name="fengxiantishi1" unicode="&#59176;" d="M672-64a32 32 0 1 0 0-64h-320a32 32 0 1 0 0 64h320zM512 896a384 384 0 0 0 192.064-716.608L704 64a64 64 0 0 0-64-64H384a64 64 0 0 0-64 64v115.392A384 384 0 0 0 512 896z m0-64a320 320 0 0 1-172.544-589.568l12.608-7.68 32-18.496L384 64h256l0.064 152.32 32 18.496A320 320 0 0 1 512 832z m6.272-147.584l55.04-32.704L498.432 526.08l123.84-57.408-95.936-164.864-55.296 32.256 60.544 104.128-124.352 57.6 110.976 186.56z"  horiz-adv-x="1024" />

    
    <glyph glyph-name="hangyepeizhi" unicode="&#59177;" d="M384 320a64 64 0 0 0 64-64v-320a64 64 0 0 0-64-64H64a64 64 0 0 0-64 64v320a64 64 0 0 0 64 64h320z m544 0a64 64 0 0 0 64-64v-320a64 64 0 0 0-64-64h-320a64 64 0 0 0-64 64v320a64 64 0 0 0 64 64h320zM384 256H64v-320h320v320z m544 0h-320v-320h320v320zM813.248 866.304l181.056-181.056a64 64 0 0 0 0-90.496l-181.056-181.056a64 64 0 0 0-90.496 0L541.696 594.752a64 64 0 0 0 0 90.496L722.752 866.304a64 64 0 0 0 90.496 0zM384 864a64 64 0 0 0 64-64v-320a64 64 0 0 0-64-64H64a64 64 0 0 0-64 64v320a64 64 0 0 0 64 64h320z m384-43.008L587.008 640 768 459.008 948.992 640 768 820.992zM384 800H64v-320h320v320z"  horiz-adv-x="1024" />

    
    <glyph glyph-name="hangyanguanli" unicode="&#59178;" d="M704 896v-160a32 32 0 0 1 26.24-31.488L736 704H960v-704a128 128 0 0 0-128-128H192a128 128 0 0 0-128 128V768a128 128 0 0 0 128 128h512z m-64-64H192a64 64 0 0 1-63.552-56.512L128 768v-768a64 64 0 0 1 56.512-63.552L192-64h640a64 64 0 0 1 63.552 56.512L896 0V640.064l-165.76 0.192-11.392 1.28a96 96 0 0 0-78.4 85.248L640 736V832z m32-640a32 32 0 1 0 0-64h-320a32 32 0 1 0 0 64h320z m0 192a32 32 0 1 0 0-64h-320a32 32 0 0 0 0 64h320z m0 192a32 32 0 1 0 0-64h-320a32 32 0 0 0 0 64h320zM768 896l128-128h-128V896z"  horiz-adv-x="1024" />

    
    <glyph glyph-name="xiangmuguanli" unicode="&#59179;" d="M464.64 853.248l23.296-34.304c16.448-24.64 25.152-39.04 25.152-39.04l4.544-2.88c4.928-2.816 13.696-6.784 25.28-8.064l7.296-0.384h408.704c16.704-0.704 59.072-7.872 64-60.16l0.448-10.24v-749.568s10.368-69.376-53.12-75.712l-9.6-0.448-890.752-0.192c-9.536-0.96-64.576-3.2-69.504 70.848L0-45.824V815.552l0.896 8.128C3.968 844.224 17.536 890.048 77.312 895.04L88.32 895.488h310.784l3.2 0.384c9.6 0.768 38.912-0.832 62.336-42.624z m-62.528-21.76H88.256c-17.536 0-22.528-4.736-23.872-12.8l-0.32-3.2L64.192-64l7.104 0.512h888.576v3.84l0.192-1.152-0.64 9.472V698.112c0 2.624 0.064 4.16 0.32 5.056L960.128 704l-0.768 0.192-3.008 0.384H550.208a130.496 130.496 0 0 0-72.128 21.76l-4.8 3.456-8.96 7.168-17.472 27.968-30.08 45.376-7.936 11.584a55.04 55.04 0 0 1-4.608 7.04l-2.112 2.56zM240 211.2a48 48 0 1 0 0-96 48 48 0 0 0 0 96z m560-19.2a32 32 0 1 0 0-64h-384a32 32 0 1 0 0 64h384zM240 403.2a48 48 0 1 0 0-96 48 48 0 0 0 0 96z m560-19.2a32 32 0 1 0 0-64h-384a32 32 0 0 0 0 64h384zM240 576a48 48 0 1 0 0-96 48 48 0 0 0 0 96z m560-19.2a32 32 0 1 0 0-64h-384a32 32 0 0 0 0 64h384z"  horiz-adv-x="1024" />

    
    <glyph glyph-name="touzilunci" unicode="&#59180;" d="M50.87552 606.528l219.776-137.344a256 256 0 0 1 209.472-339.2v-257.024A512 512 0 0 0 41.59552 586.112l9.344 20.48z m935.04-28.16A512 512 0 0 0 560.12352-125.76l-16-1.216v257.024a256 256 0 0 1 214.72 322.56l227.072 125.888zM82.49152 511.36l-4.48-16.064a448.256 448.256 0 0 1 331.264-547.456l6.848-1.472v132.288l-13.376 4.48a320.256 320.256 0 0 0-210.304 286.208L192.12352 384c0 18.304 1.536 36.48 4.608 54.272l0.256 1.536L82.49152 511.36z m866.176-26.688L830.20352 419.008c0.64-5.952 1.152-11.776 1.472-17.536L832.12352 384a320.256 320.256 0 0 0-210.56-300.8l-13.44-4.48v-132.288l6.848 1.408a448.32 448.32 0 0 1 344.896 420.736L960.12352 384c0 29.568-2.88 58.752-8.448 87.168l-3.008 13.504zM512.12352 896a511.808 511.808 0 0 0 445.76-259.968l-224-124.16a256 256 0 0 1-206.912 127.68L512.12352 640c-83.392 0-157.44-39.872-204.16-101.568l-8.448-11.776-217.216 135.68A511.616 511.616 0 0 0 493.56352 895.68L512.12352 896z m0-64a447.04 447.04 0 0 1-334.208-149.632l-2.432-2.752 110.592-69.12 8.832 8.512A319.296 319.296 0 0 0 496.76352 703.616L512.12352 704c90.496 0 174.4-37.888 233.792-101.44l6.464-7.296 113.856 63.168-1.92 2.56a447.36 447.36 0 0 1-334.72 170.688L512.12352 832z"  horiz-adv-x="1024" />

    
    <glyph glyph-name="jichushujupeizhi" unicode="&#59174;" d="M496.896 860.352L65.152 675.2a38.4 38.4 0 0 1 0-70.528l431.744-185.088a38.4 38.4 0 0 1 30.208 0l431.744 185.088a38.4 38.4 0 0 1 0 70.528L527.104 860.352a38.4 38.4 0 0 1-30.208 0zM512 797.248L878.72 640 511.936 482.816 145.216 640 512 797.248zM947.392 413.44a32 32 0 0 0 30.272-56.128l-5.056-2.752-445.44-190.912a38.4 38.4 0 0 0-24.32-1.92l-5.952 1.92L51.392 354.56a32 32 0 0 0 19.712 60.672l5.504-1.792L512 226.816l435.392 186.624zM947.392 157.44a32 32 0 0 0 30.272-56.128l-5.056-2.752-445.44-190.912a38.4 38.4 0 0 0-24.32-1.92l-5.952 1.92L51.392 98.56a32 32 0 0 0 19.712 60.672l5.504-1.792L512-29.184l435.392 186.624z"  horiz-adv-x="1024" />

    
    <glyph glyph-name="chexiaohuiyi" unicode="&#59136;" d="M789.312 864c39.04 0 70.528-30.528 74.304-68.992l0.384-7.808v-293.632a32 32 0 0 0-63.488-5.76l-0.512 5.76V787.2c0 5.952-3.264 10.56-7.424 12.16l-3.2 0.64H106.624c-4.48 0-8.64-3.456-10.112-8.64L96 787.2v-806.4c0-5.952 3.264-10.56 7.424-12.16l3.2-0.64h126.08a32 32 0 0 0 5.76-63.488l-5.76-0.512h-126.08c-38.976 0-70.4 30.528-74.24 68.992L32-19.2V787.2C32 826.624 61.056 859.648 98.944 863.616L106.624 864h682.688z m-122.88-621.952a32 32 0 0 0-3.968-40.832l-4.48-3.648a32 32 0 0 0-40.768 3.968l-3.648 4.48-64 93.824a32 32 0 0 0-3.328 29.888l2.944 5.632 64 98.112a32 32 0 0 0 56.32-29.824l-2.688-5.12-30.4-46.528h140.288C896 352 992 251.392 992 128c0-119.296-89.728-217.28-203.456-223.68l-11.84-0.32H448a32 32 0 0 0-5.76 63.488L448-32h328.704c83.2 0 151.296 71.296 151.296 160 0 85.12-62.72 154.24-141.376 159.68l-9.92 0.32H635.136l31.36-45.952z"  horiz-adv-x="1024" />

    
    <glyph glyph-name="baifangjilu1" unicode="&#59137;" d="M710.983612 320.380913l9.14798-1.215466 133.765227-22.518106c74.015479-12.474519 123.977527-84.123038 111.822868-160.057675l-10.171531-28.787352c-14.713535-39.790517-43.500887-111.758896-74.335339-154.364176-44.204578-61.285073-129.734998-90.776115-204.965943-78.045709-75.230945 12.666435-108.112498 74.655198-89.304762 127.943785 18.807736 53.032699 31.985946 28.019689 44.396494 105.169791 12.346575 77.40599-23.861516 65.763105-35.82426 118.98772-11.514941 50.857654 45.675931 99.924096 115.469266 92.887188zM767.662708 896a127.943785 127.943785 0 0 0 127.943785-127.943785v-191.915677h-63.971892V768.056215a63.971892 63.971892 0 0 1-56.487181 63.524089L767.662708 832.028108H127.943785a63.971892 63.971892 0 0 1-63.524089-56.487181L63.971892 768.056215v-703.690816a63.971892 63.971892 0 0 1 56.487181-63.524089L127.943785 0.393507h255.887569v-63.971892H127.943785a127.943785 127.943785 0 0 0-127.943785 127.943784V768.056215a127.943785 127.943785 0 0 0 127.943785 127.943785h639.718923z m-103.314606-648.994848l-4.669948-3.838313-1.599297-1.599298a23.541656 23.541656 0 0 1 3.710369-9.787699l7.42074-10.107559c25.716701-34.160991 34.160991-67.93815 25.268897-123.273837-6.781021-42.477337-14.905451-65.635162-29.938845-87.385605l-5.309667-7.164852a55.527603 55.527603 0 0 1-11.962744-21.878387c-6.397189-18.104046 6.397189-37.935332 39.662573-43.500887 53.992277-9.147981 114.061884 13.114238 142.465404 52.456952 10.619334 14.713535 22.710022 36.719866 35.184541 63.716005 6.844992 14.777507 13.434097 30.386649 19.831287 46.31565l12.346575 32.305806 6.205274 17.720214 0.447803 3.966257c1.983129 35.632344-20.215118 67.554318-52.456952 76.894215l-7.676627 1.727241-133.829199 22.518106c-17.784186 3.006679-34.416878-0.959578-45.100184-9.084009zM351.845408 192.309184a31.985946 31.985946 0 1 0 0-63.971892h-127.943785a31.985946 31.985946 0 1 0 0 63.971892h127.943785z m639.718923 159.929731a31.985946 31.985946 0 1 0 0-63.971892 31.985946 31.985946 0 0 0 0 63.971892z m-63.971892 76.766271a31.985946 31.985946 0 1 0 0-63.971893 31.985946 31.985946 0 0 0 0 63.971893z m-447.803246 19.191568a31.985946 31.985946 0 0 0 0-63.971893h-255.88757a31.985946 31.985946 0 0 0 0 63.971893h255.88757z m172.724109 63.971892a63.971892 63.971892 0 1 0 0-127.943785 63.971892 63.971892 0 0 0 0 127.943785z m156.731136-25.588757a47.978919 47.978919 0 1 0 0-95.957839 47.978919 47.978919 0 0 0 0 95.957839zM671.70487 704.084323a31.985946 31.985946 0 1 0 0-63.971892h-447.803247a31.985946 31.985946 0 0 0 0 63.971892h447.803247z"  horiz-adv-x="1024" />

    
    <glyph glyph-name="daoruexcel" unicode="&#59139;" d="M760.703525-62.143401H138.879913c-43.839973 0-73.087954 29.247982-73.087954 73.087954V757.120087c0 43.839973 29.247982 73.087954 73.087954 73.087954h299.903813C482.751698 830.144041 511.99968 800.896059 511.99968 757.120087v-175.55189c0-43.903973 29.247982-73.151954 73.151954-73.151955h248.703845v-160.895899c0-14.655991 14.591991-29.311982 29.247982-29.311982a31.48798 31.48798 0 0 1 29.247981 29.311982V508.352242c0 36.543977-14.655991 80.44795-43.903972 109.695932l-255.99984 241.407849C563.199648 881.280009 533.951666 896 490.047694 896H146.303909A146.687908 146.687908 0 0 1 0 749.696091v-731.391542A146.687908 146.687908 0 0 1 146.303909-127.99936H767.99952a131.135918 131.135918 0 0 1 131.647918 131.647918v95.10394A31.48798 31.48798 0 0 1 870.399456 128.00048a31.48798 31.48798 0 0 1-29.247982-29.247982v-87.807945c-7.295995-43.839973-43.903973-73.087954-80.447949-73.087954zM577.855639 786.304069l219.391863-212.159868H577.919639V786.304069z m446.143721-563.199648a31.48798 31.48798 0 0 0-29.247982-29.247982H570.495643l87.807946-87.807945c14.591991-14.591991 14.591991-29.247982 0-43.903973-14.655991-14.591991-29.247982-14.591991-43.903973 0l-138.943913 139.007913a35.327978 35.327978 0 0 0 0 51.199968L614.399616 384.00032c14.655991 14.655991 36.543977 7.295995 43.903973 0 14.591991-14.655991 14.591991-36.543977 0-43.903973l-87.807946-87.743945h416.95974c21.887986 0 36.543977-7.295995 36.543977-29.247981z"  horiz-adv-x="1024" />

    
    <glyph glyph-name="dianziqianyue" unicode="&#59141;" d="M896 896a64 64 0 0 0 64-64v-896a64 64 0 0 0-64-64H128a64 64 0 0 0-64 64V832a64 64 0 0 0 64 64h768z m0-64H128v-896h768V832z m-224-640a32 32 0 1 0 0-64h-320a32 32 0 1 0 0 64h320z m11.648 491.648a32 32 0 0 0 0-45.248l-316.8-316.8a32 32 0 1 0-45.248 45.248l316.8 316.8a32 32 0 0 0 45.248 0z"  horiz-adv-x="1024" />

    
    <glyph glyph-name="genghuanlogo" unicode="&#59145;" d="M961.088 288a32 32 0 0 0 5.76-63.488l-5.76-0.512H141.248l144.512-144.448a32 32 0 0 0 3.712-40.832l-3.712-4.416a32 32 0 0 0-40.832-3.712l-4.48 3.712-199.04 199.04a32 32 0 0 0 17.152 54.208l5.504 0.448h897.024zM780.16 730.304l4.416-3.648 199.04-199.04a32 32 0 0 0-17.088-54.208l-5.504-0.448H64a32 32 0 0 0-5.76 63.488L64 536.96h819.776l-144.448 144.384a32 32 0 0 0-3.712 40.832l3.712 4.48a32 32 0 0 0 40.832 3.648z"  horiz-adv-x="1024" />

    
    <glyph glyph-name="fengxiantishi" unicode="&#59146;" d="M672-64a32 32 0 1 0 0-64h-320a32 32 0 1 0 0 64h320zM512 896a384 384 0 0 0 192.064-716.608L704 64a64 64 0 0 0-64-64H384a64 64 0 0 0-64 64v115.392A384 384 0 0 0 512 896z m0-64a320 320 0 0 1-172.544-589.568l12.608-7.68 32-18.496L384 64h256l0.064 152.32 32 18.496A320 320 0 0 1 512 832z m6.272-147.584l55.04-32.704L498.432 526.08l123.84-57.408-95.936-164.864-55.296 32.256 60.544 104.128-124.352 57.6 110.976 186.56z"  horiz-adv-x="1024" />

    
    <glyph glyph-name="fujian1" unicode="&#59147;" d="M760.128 819.2c82.752-32 131.008-102.4 131.008-185.664a191.616 191.616 0 0 0-62.08-140.8L442.944 128c-13.76-12.8-27.52-19.2-41.344-25.6-13.824-6.4-27.52-6.4-48.256-6.4-13.824 0-34.56 0-48.256 6.4-13.76 6.4-27.52 12.864-34.496 25.6-13.824 12.8-20.672 25.6-27.52 38.4-6.848 12.8-6.848 32-6.848 44.8 0 32 13.824 64 34.56 83.2L622.336 633.6c6.784 6.4 20.608 12.8 27.52 12.8 12.8-0.192 25.088-4.736 34.56-12.8 6.784-6.4 13.76-19.2 13.76-25.536-6.848-12.8-6.848-19.2-13.824-32l-358.592-332.8a47.232 47.232 0 0 1-13.824-32c0-19.2 20.736-38.4 41.408-38.4 13.824 0 20.672 6.336 27.52 12.8l386.048 364.8c27.52 25.6 34.368 51.136 34.368 83.136 0 32-13.76 57.6-34.368 83.2a100.992 100.992 0 0 1-82.752 38.4c-34.56 0-68.928-12.8-89.6-38.4L208.64 352c-20.672-19.2-34.56-38.4-48.256-64-20.608-44.8-20.608-102.4 0-147.2 13.824-25.536 27.52-44.8 48.256-64 41.408-38.4 89.6-57.6 144.768-57.6 55.04 0 110.272 19.2 144.64 57.6l392.96 358.4c6.912 12.864 13.888 12.864 27.584 12.864 13.824 0 20.672-6.4 27.52-12.8 6.848-6.4 13.824-12.864 13.824-25.6 0-12.8-6.848-19.2-13.76-25.6L560.192 19.2c-27.52-25.536-62.08-44.8-96.512-64a304.64 304.64 0 0 0-110.208-19.2 304.64 304.64 0 0 0-110.272 19.2c-34.56 12.864-68.992 32.064-96.512 64-27.52 25.6-48.256 57.6-62.08 89.6A273.216 273.216 0 0 0 64 211.2c0 38.4 6.848 70.4 20.672 108.8 13.824 32 34.56 64 62.08 89.6l385.984 364.672A221.76 221.76 0 0 0 684.288 832c27.584 0 55.168-6.4 75.84-12.8z"  horiz-adv-x="1024" />

    
    <glyph glyph-name="genggaizhuangtai" unicode="&#59149;" d="M982.848 342.4a32 32 0 0 0 3.264-40.896l-3.712-4.352L590.72-86.4a32 32 0 0 0-39.744-3.968l-4.992 3.968-184.448 180.608a32 32 0 0 0 40.32 49.408l4.48-3.648 161.984-158.656 369.28 361.472a32 32 0 0 0 45.184-0.448zM288 128a32 32 0 1 0 0-64h-256a32 32 0 1 0 0 64h256z m320 320a32 32 0 0 0 0-64h-576a32 32 0 0 0 0 64h576z m384 320a32 32 0 1 0 0-64H32a32 32 0 0 0 0 64h960z"  horiz-adv-x="1024" />

    
    <glyph glyph-name="guidangguanli_normal" unicode="&#59150;" d="M884.363636 616.727273a139.636364 139.636364 0 0 0 139.636364-139.636364v-465.454545a139.636364 139.636364 0 0 0-139.636364-139.636364H139.636364a139.636364 139.636364 0 0 0-139.636364 139.636364V477.090909a139.636364 139.636364 0 0 0 139.636364 139.636364h744.727272z m0-93.090909H139.636364a46.545455 46.545455 0 0 1-46.219637-41.099637L93.090909 477.090909v-465.454545a46.545455 46.545455 0 0 1 41.099636-46.219637L139.636364-34.909091h744.727272a46.545455 46.545455 0 0 1 46.219637 41.099636L930.909091 11.636364V477.090909a46.545455 46.545455 0 0 1-41.099636 46.219636L884.363636 523.636364z m-232.727272-232.727273a46.545455 46.545455 0 0 0 0-93.090909H372.363636a46.545455 46.545455 0 0 0 0 93.090909h279.272728z m232.727272 465.454545a46.545455 46.545455 0 0 0 0-93.090909H139.636364a46.545455 46.545455 0 1 0 0 93.090909h744.727272z m-93.090909 139.636364a46.545455 46.545455 0 0 0 0-93.090909H232.727273a46.545455 46.545455 0 1 0 0 93.090909h558.545454z"  horiz-adv-x="1024" />

    
    <glyph glyph-name="guidangguanli_pressed" unicode="&#59151;" d="M884.363636 616.727273a139.636364 139.636364 0 0 0 139.636364-139.636364v-465.454545a139.636364 139.636364 0 0 0-139.636364-139.636364H139.636364a139.636364 139.636364 0 0 0-139.636364 139.636364V477.090909a139.636364 139.636364 0 0 0 139.636364 139.636364h744.727272z m-232.727272-325.818182H372.363636a46.545455 46.545455 0 0 1-5.445818-92.765091L372.363636 197.818182h279.272728a46.545455 46.545455 0 0 1 0 93.090909z m232.727272 465.454545a46.545455 46.545455 0 0 0 0-93.090909H139.636364a46.545455 46.545455 0 1 0 0 93.090909h744.727272z m-93.090909 139.636364a46.545455 46.545455 0 0 0 0-93.090909H232.727273a46.545455 46.545455 0 1 0 0 93.090909h558.545454z"  horiz-adv-x="1024" />

    
    <glyph glyph-name="lixiangbeizhu" unicode="&#59152;" d="M896 896a64 64 0 0 0 64-64v-874.752a64 64 0 0 0-81.92-61.44L537.472-5.12a64 64 0 0 1-35.2 0.192L145.28-105.152A64 64 0 0 0 64-43.584V832a64 64 0 0 0 64 64h768z m0-64H128v-875.52l356.928 100.16a128 128 0 0 0 58.752 2.496l11.52-2.816L896-42.752V832z m-192-480a32 32 0 0 0 5.696-63.488l-5.76-0.512H320a32 32 0 0 0-5.76 63.488L320 352h384z m0 256a32 32 0 0 0 5.696-63.488l-5.76-0.512H320a32 32 0 0 0-5.76 63.488L320 608h384z"  horiz-adv-x="1024" />

    
    <glyph glyph-name="mobanguanli" unicode="&#59153;" d="M832 896a128 128 0 0 0 128-128v-768a128 128 0 0 0-128-128H192a128 128 0 0 0-128 128V768a128 128 0 0 0 128 128h640zM320 832H192a64 64 0 0 1-63.552-56.512L128 768v-768a64 64 0 0 1 56.512-63.552L192-64h128V832z m576-320H384v-576h448a64 64 0 0 1 63.552 56.512L896 0V512z m-64 320H384v-256h512V768a64 64 0 0 1-56.512 63.552L832 832z"  horiz-adv-x="1024" />

    
    <glyph glyph-name="lixiang" unicode="&#59154;" d="M1018.944 310.144a31.872 31.872 0 0 1-1.024 8.128l-95.808 363.008C906.752 734.784 857.856 768 794.752 768H221.504c-47.616 0-106.88-27.008-124.8-87.424L1.216 318.464a31.872 31.872 0 0 1-1.088-8.128v-173.12a95.808 95.808 0 0 1 95.744-95.488h827.52c52.8 0 95.552 42.752 95.744 95.488l-0.192 172.928zM158.08 663.296c8.384 28.096 38.784 40.832 63.488 40.832h573.12c16.448 0 55.68-3.904 66.112-39.872l94.336-357.376c-2.048-15.36-17.728-28.672-34.88-28.672H607.744a31.872 31.872 0 0 1-31.872-31.872 66.368 66.368 0 0 0-132.736 0 31.872 31.872 0 0 1-31.872 31.872H95.616a31.872 31.872 0 0 0-31.68 28.416l94.08 356.672z m765.248-558.08H95.744a31.872 31.872 0 0 0-31.872 31.808V220.16c10.24-3.584 20.992-5.44 31.872-5.44H383.36a130.176 130.176 0 0 1 252.352 0h284.48c11.968 0 23.872 2.112 35.008 6.4v-84.032a31.872 31.872 0 0 0-31.808-31.872h-0.192z"  horiz-adv-x="1024" />

    
    <glyph glyph-name="qiyeguanli1" unicode="&#59155;" d="M958.464 825.344a64 64 0 0 0 1.536-13.888V-64h32a32 32 0 1 0 0-64H640v0.064H576V560.192L128 460.672V-128L32-128a32 32 0 1 0 0 64H64V460.736a64 64 0 0 0 50.112 62.464L384 583.104V711.872a64 64 0 0 0 50.112 62.528l448 99.52a64 64 0 0 0 76.352-48.576zM896 811.456L448 711.872v-114.496l114.112 25.344A64 64 0 0 0 640 560.192v-624.128L896-64V811.456zM511.488 69.12A26.24 26.24 0 0 0 512 64a39.04 39.04 0 0 0-31.36-38.272l-257.28-51.456A26.24 26.24 0 0 0 192 0a39.04 39.04 0 0 0 31.36 38.272l257.28 51.456a26.24 26.24 0 0 0 30.848-20.608z m0 160A26.24 26.24 0 0 0 512 224a39.04 39.04 0 0 0-31.36-38.272l-257.28-51.456A26.24 26.24 0 0 0 192 160a39.04 39.04 0 0 0 31.36 38.272l257.28 51.456a26.24 26.24 0 0 0 30.848-20.608z m0 160A26.24 26.24 0 0 0 512 384a39.04 39.04 0 0 0-31.36-38.272l-257.28-51.456A26.24 26.24 0 0 0 192 320a39.04 39.04 0 0 0 31.36 38.272l257.28 51.456a26.24 26.24 0 0 0 30.848-20.608z"  horiz-adv-x="1024" />

    
    <glyph glyph-name="shanchu-renwu" unicode="&#59156;" d="M704 704a320 320 0 0 0 0-640H320A320 320 0 0 0 320 704h384z m0-64H320a256 256 0 0 1-12.8-511.68L320 128h384a256 256 0 0 1 12.8 511.68L704 640zM434.176 506.304l4.48-3.648L512.64 428.608l74.048 74.048 4.48 3.648a32 32 0 0 0 40.768-48.96L557.888 383.36l74.048-74.048a32 32 0 0 0-40.832-48.96l-4.416 3.712L512.64 338.112 438.656 264.064l-4.48-3.712a32 32 0 0 0-40.832 48.96L467.392 383.36 393.344 457.344a32 32 0 0 0 40.832 48.96z"  horiz-adv-x="1024" />

    
    <glyph glyph-name="shanchu-mokuai" unicode="&#59157;" d="M1024 896v-1024l-20.16 0.192C454.4-117.184 10.944 326.208 0.192 875.584L0 896h1024zM466.176 666.304a32 32 0 0 1-40.832-48.96l135.616-135.552-135.616-135.68-3.648-4.416a32 32 0 0 1 44.48-44.48l4.48 3.648 135.552 135.68 135.68-135.68 4.416-3.648a32 32 0 0 1 40.832 48.96l-135.68 135.616 135.68 135.552 3.648 4.48a32 32 0 0 1-44.48 44.48l-4.48-3.648-135.616-135.616-135.552 135.616z"  horiz-adv-x="1024" />

    
    <glyph glyph-name="shangchuan1" unicode="&#59158;" d="M903.68 512h-118.784a27.072 27.072 0 0 1 0-54.144h118.784c32.96 0 59.712-26.88 59.712-59.776v-412.032a59.84 59.84 0 0 0-59.712-59.84H120.192a59.84 59.84 0 0 0-59.712 59.84V397.952c0 32.96 26.816 59.84 59.712 59.84h118.784a27.072 27.072 0 0 1 0 54.08H120.192C51.712 512 0 462.976 0 397.952v-412.032C0-75.776 55.04-128 120.192-128h783.616c68.48 0 120.192 49.024 120.192 113.92V397.952C1023.872 459.776 968.96 512 903.68 512zM283.456 623.04c6.272 0 12.288 0 18.304 5.888l172.608 163.84a4.224 4.224 0 0 0 2.88 1.152c0.512 0 1.088-0.064 1.6-0.32 1.536-0.576 2.56-2.048 2.56-3.712v-567.68c0-18.112 12.288-30.208 30.72-30.208 18.368 0 30.72 12.16 30.72 30.272V789.696c0 2.24 1.792 4.032 4.032 4.032 1.088 0 2.112-0.384 2.816-1.216l172.48-169.856a39.68 39.68 0 0 1 16.832-3.904c9.152 0 16.192 3.392 19.328 9.28l0.704 1.024a29.12 29.12 0 0 1-0.192 42.176L530.56 889.92A58.944 58.944 0 0 1 512 896c-6.272 0-12.288 0-18.304-5.888l-228.48-218.816A29.952 29.952 0 0 1 256 650.112c0-7.872 3.2-15.36 9.28-21.248 5.888-5.824 11.84-5.824 18.176-5.824z"  horiz-adv-x="1024" />

    
    <glyph glyph-name="shangyi" unicode="&#59160;" d="M807.936 767.616l5.312-4.672 181.44-184.64a48 48 0 0 0-63.104-71.936l-5.376 4.672-99.2 100.992V32a48 48 0 0 0-95.552-6.528l-0.448 6.528V615.552L623.104 510.336a48 48 0 0 0-62.592-3.84l-5.312 4.672a48 48 0 0 0-3.84 62.592l4.736 5.312 189.44 184.576a48 48 0 0 0 62.4 3.968zM400 128a48 48 0 1 0 0-96H48a48 48 0 1 0 0 96h352z m0 320a48 48 0 0 0 0-96H48a48 48 0 0 0 0 96h352z m0 320a48 48 0 0 0 0-96H48a48 48 0 0 0 0 96h352z"  horiz-adv-x="1024" />

    
    <glyph glyph-name="shouquan" unicode="&#59161;" d="M512 320a511.36 511.36 0 0 0 163.712-26.752l-33.28-56.448A448.128 448.128 0 0 1 68.544-128H3.84A512.064 512.064 0 0 0 512 320z m462.144-41.344l45.248-45.312-347.264-347.264-182.784 182.784 45.312 45.248 137.472-137.472 302.08 302.016zM512 896a256 256 0 1 0 0-512 256 256 0 0 0 0 512z m0-64a192 192 0 1 1 0-384 192 192 0 0 1 0 384z"  horiz-adv-x="1024" />

    
    <glyph glyph-name="tianjialogo" unicode="&#59162;" d="M921.6 896a102.4 102.4 0 0 0 102.4-102.4v-819.2a102.4 102.4 0 0 0-102.4-102.4H102.4a102.4 102.4 0 0 0-102.4 102.4V793.6a102.4 102.4 0 0 0 102.4 102.4h819.2z m0-25.6H102.4a76.8 76.8 0 0 1-76.672-72.2944L25.6 793.6v-819.2a76.8 76.8 0 0 1 72.2944-76.672L102.4-102.4h819.2a76.8 76.8 0 0 1 76.672 72.2944L998.4-25.6V793.6a76.8 76.8 0 0 1-72.2944 76.672L921.6 870.4zM512 524.8a12.8 12.8 0 0 0 12.8-12.8l-0.0256-128H652.8a12.8 12.8 0 1 0 0-25.6h-128.0256l0.0256-128a12.8 12.8 0 1 0-25.6 0l-0.0256 128H371.2a12.8 12.8 0 1 0 0 25.6h127.9744l0.0256 128a12.8 12.8 0 0 0 12.8 12.8z"  horiz-adv-x="1024" />

    
    <glyph glyph-name="touziguanli21" unicode="&#59163;" d="M1023.3604 644.445222V-49.329169A78.670831 78.670831 0 0 0 944.689569-128H78.670831A78.670831 78.670831 0 0 0 0-49.329169v221.429606l157.469582-78.670831 236.140412 314.875203 236.140412-157.469581L1023.3604 644.445222z m-63.960025-154.399501l-321.463086-321.527045L408.44872 321.638976l-231.855091-309.246721L63.960025 68.677077v-117.942286a14.710806 14.710806 0 0 1 10.873204-14.263086l3.837602-0.51168h866.018738a14.710806 14.710806 0 0 1 14.199126 10.873204l0.51168 3.837602V490.109681z m64.407745 405.762399V714.993129l-61.465584 61.465584-335.150531-303.554278-260.509182 199.107558-289.483073-310.078202-46.690818 43.620737 328.946408 352.419738 264.282824-201.921799 293.256714 265.689944-74.065709 74.193629h180.878951z"  horiz-adv-x="1024" />

    
    <glyph glyph-name="xiayi" unicode="&#59164;" d="M779.008 777.28a48 48 0 0 0 48-48v-579.968l99.2 100.928 5.376 4.736a48 48 0 0 0 63.104-72l-181.44-184.64-5.312-4.672a48 48 0 0 0-62.4 3.968l-189.44 184.576-4.736 5.376a48 48 0 0 0 3.84 62.528l5.312 4.736a48 48 0 0 0 62.592-3.84l107.904-105.344v583.68l0.448 6.464a48 48 0 0 0 47.552 41.472zM400 128a48 48 0 1 0 0-96H48a48 48 0 1 0 0 96h352z m0 320a48 48 0 0 0 0-96H48a48 48 0 0 0 0 96h352z m0 320a48 48 0 0 0 0-96H48a48 48 0 0 0 0 96h352z"  horiz-adv-x="1024" />

    
    <glyph glyph-name="tianjiaqianzhangleixing" unicode="&#59166;" d="M512 896a512 512 0 1 0 0-1024A512 512 0 0 0 512 896z m0-64a448 448 0 1 1 0-896A448 448 0 0 1 512 832z m1.792-224.512a32 32 0 0 0 31.488-26.24l0.512-5.76V416h159.552a32 32 0 0 0 5.76-63.488l-5.76-0.512H545.792v-159.488a32 32 0 0 0-63.488-5.76l-0.512 5.76V352H322.304a32 32 0 0 0-5.76 63.488l5.76 0.512h159.488V575.488a32 32 0 0 0 32 32z"  horiz-adv-x="1024" />

    
    <glyph glyph-name="shezhi2" unicode="&#59167;" d="M1010.816 510.528c-6.016 31.68-25.28 52.224-49.152 52.224h-5.184A125.632 125.632 0 0 0 831.36 688.64c0 22.528 10.752 47.744 10.88 48a66.24 66.24 0 0 1-22.08 79.744l-1.536 1.088L691.776 888.32l-1.6 0.64a72.448 72.448 0 0 1-78.464-15.744c-13.952-14.336-61.952-55.552-98.816-55.552-37.248 0-85.568 42.048-99.52 56.704A72.448 72.448 0 0 1 334.976 890.624l-1.664-0.704-131.264-72.512-1.6-1.088c-25.024-17.472-34.56-51.776-22.272-79.744 0.128-0.256 10.944-25.344 10.944-48 0-69.376-54.528-125.824-123.52-125.824H60.288c-23.872 0-43.136-20.48-49.088-52.288C10.88 508.16 0.64 452.928 0.64 409.792c0-43.136 10.24-98.304 10.688-100.672 5.952-31.68 25.28-52.224 49.152-52.224h5.12c69.056 0 123.584-56.448 123.584-125.824 0-22.528-10.816-47.744-10.88-48-12.352-27.904-2.88-62.208 22.08-79.808l1.472-1.024 124.416-69.952 1.536-0.704a71.232 71.232 0 0 1 78.784 16.64c17.664 19.2 70.4 59.136 105.792 59.136 38.4 0 82.752-44.736 96.96-60.352 12.672-14.08 32.256-22.464 52.352-22.464 9.344 0 18.176 1.792 26.24 5.312l1.664 0.64 128.96 71.68 1.536 1.088c24.96 17.536 34.56 51.84 22.208 79.68-0.064 0.256-10.88 25.728-10.88 48.128 0 69.312 56.128 125.76 125.12 125.76h5.056c23.936 0 43.2 20.48 49.216 52.288 0.064 0.512 10.688 56.448 10.688 100.672 0 43.392-10.24 98.368-10.624 100.736z m-69.568-181.952a197.504 197.504 0 0 1-181.76-197.504c0-29.824 9.728-58.624 14.528-71.04l-113.024-62.784a351.36 351.36 0 0 1-44.16 39.168c-38.4 28.672-75.136 43.2-109.248 43.2-33.792 0-70.272-14.272-108.48-42.368-22.4-16.576-39.04-33.344-43.904-38.464l-108.8 61.184c4.8 12.352 14.592 41.28 14.592 71.104 0 103.808-77.888 189.568-180.16 197.504a637.376 637.376 0 0 0 0 162.496c102.272 7.872 180.16 93.696 180.16 197.44 0 29.824-9.728 58.624-14.528 71.04l115.84 63.872c4.16-4.288 20.864-20.928 43.904-37.44 37.696-27.008 72-40.704 105.088-40.704 32.768 0 69.952 13.44 107.392 39.936a346.24 346.24 0 0 1 43.648 36.736l111.68-62.336c-4.8-12.352-14.528-41.28-14.528-71.04a197.504 197.504 0 0 1 181.76-197.504c2.496-14.72 8.32-52.288 8.32-81.28 0-29.056-5.824-66.56-8.32-81.28z m-430.08 263.936c-99.84 0-177.92-81.6-177.92-182.016 0-100.352 79.68-186.88 179.52-186.88s176.32 86.528 176.32 186.88c0 100.416-78.08 182.016-177.92 182.016z m-3.2-291.84c-60.16 0-98.048 49.28-98.048 109.824S447.808 520.32 508.032 520.32c60.16 0 109.184-49.28 109.184-109.824S568.32 300.672 508.032 300.672z"  horiz-adv-x="1024" />

    
    <glyph glyph-name="xiazai" unicode="&#59168;" d="M960 160a32 32 0 0 0 31.488-26.24l0.512-5.76v-128a96 96 0 0 0-86.784-95.552L896-96H128a96 96 0 0 0-95.552 86.784L32 0v128a32 32 0 0 0 63.488 5.76L96 128v-128a32 32 0 0 1 26.24-31.488L128-32h768a32 32 0 0 1 31.488 26.24L928 0v128a32 32 0 0 0 32 32zM512 864a32 32 0 0 0 31.488-26.24L544 832v-640.32l212.608 212.608a32 32 0 0 0 40.832 3.712l4.48-3.712a32 32 0 0 0 3.648-40.832l-3.648-4.416-267.264-267.264a32 32 0 0 0-40.832-3.712l-4.48 3.712L222.08 359.04a32 32 0 0 0 40.832 48.96l4.48-3.712L480 191.68V832A32 32 0 0 0 512 864z"  horiz-adv-x="1024" />

    
    <glyph glyph-name="xiugai1" unicode="&#59169;" d="M848.96 814.976l90.688-90.752a128 128 0 0 0 0.256-180.8L338.56-60.608l0.128-0.192-45.248-45.248-271.68 0.128 0.128 271.36L667.904 814.592a128 128 0 0 0 181.056 0.448zM928-38.4a32 32 0 1 0 0-64h-448a32 32 0 1 0 0 64h448zM85.952 101.504l-0.064-143.36 143.488-0.128-143.424 143.488zM621.44 677.248L112.32 165.76l181.056-181.056 509.12 511.616L621.44 677.248zM928 128a32 32 0 1 0 0-64h-256a32 32 0 1 0 0 64h256zM718.848 774.4l-5.568-4.992-46.592-46.848 180.992-180.992 46.848 47.04a64 64 0 0 1 4.864 84.8l-4.992 5.568-90.624 90.624a64 64 0 0 1-84.928 4.8z"  horiz-adv-x="1024" />

    
    <glyph glyph-name="xiaoxiangguanli" unicode="&#59170;" d="M977.28 896h-252.736v-67.392h219.072v-572.928H665.6c-16.896 0-33.728-16.832-33.728-33.664v-84.288h-252.8V230.4c0 16.896-16.768 33.728-33.664 33.728H67.392v564.48h219.072V896H33.664C16.896 896 0 879.168 0 862.272v-918.272c0-33.728 25.28-59.008 67.392-59.008h884.608c33.728 0 67.456 25.28 67.456 67.392V862.272C1011.008 879.168 994.176 896 977.28 896z m-33.664-943.616H67.456v252.8h252.672v-92.736c0-16.832 16.896-33.664 33.728-33.664h320.128c16.896 0 33.728 16.832 33.728 33.664v92.672h252.8v-252.736h-16.896zM471.808 778.048v-387.52h58.944V778.048l101.12-109.504 42.112 50.56L522.304 887.552C522.368 896 514.048 896 505.536 896c-8.384 0-16.832 0-16.832-8.448l-151.68-168.448 42.176-50.56 92.672 109.504z"  horiz-adv-x="1024" />

    
    <glyph glyph-name="xinzeng" unicode="&#59171;" d="M511.936 816.32a48 48 0 0 0 47.552-41.472l0.448-6.528V432l336.32-0.064a48 48 0 0 0 6.528-95.552l-6.528-0.448H559.872l0.064-336.32a48 48 0 0 0-95.552-6.528l-0.448 6.528V336.064l-336.32-0.064a48 48 0 0 0-6.464 95.552l6.464 0.448h336.256l0.064 336.32a48 48 0 0 0 48 48z"  horiz-adv-x="1024" />

    
    <glyph glyph-name="xiangguanliucheng" unicode="&#59172;" d="M746.24 609.792h155.584c35.328 0 65.088 29.696 65.088 65.024V830.4c0 36.8-29.76 65.088-65.088 65.088H746.24c-35.328 0-65.088-29.696-65.088-65.088v-46.72H558.144c-53.76 0-97.6-43.776-97.6-97.536v-261.632H350.272v31.104c0 36.736-29.696 65.024-65.088 65.024h-155.52c-35.392 0-65.088-29.696-65.088-65.024v-155.584c0-35.392 29.696-65.088 65.024-65.088h155.584c35.392 0 65.088 29.696 65.088 65.088v53.76h110.272v-284.288c0-53.76 43.84-97.6 97.6-97.6h123.008v-33.92c0-35.392 29.76-65.088 65.088-65.088h155.584c35.328 0 65.088 29.696 65.088 65.024v155.584c0 35.392-29.76 63.68-65.088 65.088H746.24c-35.328 0-65.088-29.696-65.088-65.088v-50.88H558.144a27.84 27.84 0 0 0-26.88 26.88V353.792h149.888v-42.432c0-35.392 29.76-65.088 65.088-65.088h155.584c35.328 0 65.088 29.696 65.088 65.088v155.52c0 35.392-29.76 63.68-65.088 65.088H746.24c-35.328 0-65.088-29.696-65.088-65.024v-42.432H531.264V686.08c0 14.144 12.736 26.88 26.88 26.88h123.008v-38.208c0-35.328 29.76-65.024 65.088-65.024zM279.552 305.664H135.296V449.92h144.256v-144.256z m472.32-219.2h144.32v-144.256h-144.32V86.4z m0 373.376h144.32v-142.848h-144.32V459.84z m0 364.928h144.32v-144.256h-144.32V824.768z"  horiz-adv-x="1024" />

    
    <glyph glyph-name="zaixianshengcheng" unicode="&#59173;" d="M896 832a128 128 0 0 0 128-128v-704a128 128 0 0 0-128-128H256a128 128 0 0 0-128 128v256h64v-256a64 64 0 0 1 56.512-63.552L256-64h640a64 64 0 0 1 63.552 56.512L960 0V704a64 64 0 0 1-56.512 63.552L896 768h-64V832h64zM384 896c83.584 0 154.752-53.44 181.12-128H576a192 192 0 0 0 0-384H192a192 192 0 1 0 0 384h10.88A192.064 192.064 0 0 0 384 896z m0-64c-51.264 0-96.768-30.4-117.056-76.032l-3.648-9.28L248.192 704H192a128 128 0 0 1-9.6-255.68L192 448h384a128 128 0 0 1 9.6 255.68L576 704h-56.192l-15.104 42.688A128.064 128.064 0 0 1 384 832z"  horiz-adv-x="1024" />

    
    <glyph glyph-name="touziguanli2" unicode="&#59127;" d="M1023.3604 644.445222V-49.329169A78.670831 78.670831 0 0 0 944.689569-128H78.670831A78.670831 78.670831 0 0 0 0-49.329169v221.429606l157.469582-78.670831 236.140412 314.875203 236.140412-157.469581L1023.3604 644.445222z m-63.960025-154.399501l-321.463086-321.527045L408.44872 321.638976l-231.855091-309.246721L63.960025 68.677077v-117.942286a14.710806 14.710806 0 0 1 10.873204-14.263086l3.837602-0.51168h866.018738a14.710806 14.710806 0 0 1 14.199126 10.873204l0.51168 3.837602V490.109681z m64.407745 405.762399V714.993129l-61.465584 61.465584-335.150531-303.554278-260.509182 199.107558-289.483073-310.078202-46.690818 43.620737 328.946408 352.419738 264.282824-201.921799 293.256714 265.689944-74.065709 74.193629h180.878951z"  horiz-adv-x="1024" />

    
    <glyph glyph-name="baifangjilu" unicode="&#59128;" d="M710.983612 320.380913l9.14798-1.215466 133.765227-22.518106c74.015479-12.474519 123.977527-84.123038 111.822868-160.057675l-10.171531-28.787352c-14.713535-39.790517-43.500887-111.758896-74.335339-154.364176-44.204578-61.285073-129.734998-90.776115-204.965943-78.045709-75.230945 12.666435-108.112498 74.655198-89.304762 127.943785 18.807736 53.032699 31.985946 28.019689 44.396494 105.169791 12.346575 77.40599-23.861516 65.763105-35.82426 118.98772-11.514941 50.857654 45.675931 99.924096 115.469266 92.887188zM767.662708 896a127.943785 127.943785 0 0 0 127.943785-127.943785v-191.915677h-63.971892V768.056215a63.971892 63.971892 0 0 1-56.487181 63.524089L767.662708 832.028108H127.943785a63.971892 63.971892 0 0 1-63.524089-56.487181L63.971892 768.056215v-703.690816a63.971892 63.971892 0 0 1 56.487181-63.524089L127.943785 0.393507h255.887569v-63.971892H127.943785a127.943785 127.943785 0 0 0-127.943785 127.943784V768.056215a127.943785 127.943785 0 0 0 127.943785 127.943785h639.718923z m-103.314606-648.994848l-4.669948-3.838313-1.599297-1.599298a23.541656 23.541656 0 0 1 3.710369-9.787699l7.42074-10.107559c25.716701-34.160991 34.160991-67.93815 25.268897-123.273837-6.781021-42.477337-14.905451-65.635162-29.938845-87.385605l-5.309667-7.164852a55.527603 55.527603 0 0 1-11.962744-21.878387c-6.397189-18.104046 6.397189-37.935332 39.662573-43.500887 53.992277-9.147981 114.061884 13.114238 142.465404 52.456952 10.619334 14.713535 22.710022 36.719866 35.184541 63.716005 6.844992 14.777507 13.434097 30.386649 19.831287 46.31565l12.346575 32.305806 6.205274 17.720214 0.447803 3.966257c1.983129 35.632344-20.215118 67.554318-52.456952 76.894215l-7.676627 1.727241-133.829199 22.518106c-17.784186 3.006679-34.416878-0.959578-45.100184-9.084009zM351.845408 192.309184a31.985946 31.985946 0 1 0 0-63.971892h-127.943785a31.985946 31.985946 0 1 0 0 63.971892h127.943785z m639.718923 159.929731a31.985946 31.985946 0 1 0 0-63.971892 31.985946 31.985946 0 0 0 0 63.971892z m-63.971892 76.766271a31.985946 31.985946 0 1 0 0-63.971893 31.985946 31.985946 0 0 0 0 63.971893z m-447.803246 19.191568a31.985946 31.985946 0 0 0 0-63.971893h-255.88757a31.985946 31.985946 0 0 0 0 63.971893h255.88757z m172.724109 63.971892a63.971892 63.971892 0 1 0 0-127.943785 63.971892 63.971892 0 0 0 0 127.943785z m156.731136-25.588757a47.978919 47.978919 0 1 0 0-95.957839 47.978919 47.978919 0 0 0 0 95.957839zM671.70487 704.084323a31.985946 31.985946 0 1 0 0-63.971892h-447.803247a31.985946 31.985946 0 0 0 0 63.971892h447.803247z"  horiz-adv-x="1024" />

    
    <glyph glyph-name="qiyeguanli" unicode="&#59131;" d="M958.464 825.344a64 64 0 0 0 1.536-13.888V-64h32a32 32 0 1 0 0-64H640v0.064H576V560.192L128 460.672V-128L32-128a32 32 0 1 0 0 64H64V460.736a64 64 0 0 0 50.112 62.464L384 583.104V711.872a64 64 0 0 0 50.112 62.528l448 99.52a64 64 0 0 0 76.352-48.576zM896 811.456L448 711.872v-114.496l114.112 25.344A64 64 0 0 0 640 560.192v-624.128L896-64V811.456zM511.488 69.12A26.24 26.24 0 0 0 512 64a39.04 39.04 0 0 0-31.36-38.272l-257.28-51.456A26.24 26.24 0 0 0 192 0a39.04 39.04 0 0 0 31.36 38.272l257.28 51.456a26.24 26.24 0 0 0 30.848-20.608z m0 160A26.24 26.24 0 0 0 512 224a39.04 39.04 0 0 0-31.36-38.272l-257.28-51.456A26.24 26.24 0 0 0 192 160a39.04 39.04 0 0 0 31.36 38.272l257.28 51.456a26.24 26.24 0 0 0 30.848-20.608z m0 160A26.24 26.24 0 0 0 512 384a39.04 39.04 0 0 0-31.36-38.272l-257.28-51.456A26.24 26.24 0 0 0 192 320a39.04 39.04 0 0 0 31.36 38.272l257.28 51.456a26.24 26.24 0 0 0 30.848-20.608z"  horiz-adv-x="1024" />

    
    <glyph glyph-name="yibohui" unicode="&#59125;" d="M802.520615 596.420923c-27.687385-11.224615-56.576-18.313846-86.685538-20.086154-167.384615 23.630769-296.802462-113.545846-298.023385-114.727384-61.400615-82.786462-184.221538-84.558769-185.422769-84.55877C83.692308 369.368615 4.824615 274.747077 3.603692 273.565538L0 276.519385c0.590769 1.181538 81.270154 97.575385 232.388923 105.255384 1.201231 0 121.009231 1.181538 181.819077 82.786462 1.201231 1.772308 133.060923 140.150154 302.237538 116.499692 0.590769 0 95.704615 3.544615 143.872 63.271385 1.220923 1.772308 136.664615 137.767385 279.965539 106.436923l-1.201231-4.726154C998.203077 776.743385 865.142154 641.969231 863.940923 640.787692a164.627692 164.627692 0 0 0-61.420308-44.366769zM822.547692 576.354462c-27.707077-11.224615-56.615385-18.333538-86.70523-20.105847-167.384615 23.650462-296.822154-113.545846-298.023385-114.727384-61.400615-82.766769-184.221538-84.558769-185.422769-84.558769-148.716308-7.68-227.584-102.281846-228.785231-103.463385l-3.603692 2.953846c0.590769 1.181538 81.270154 97.555692 232.36923 105.255385 1.220923 0 121.028923 1.181538 181.83877 82.786461 1.201231 1.772308 133.041231 140.130462 302.217846 116.48 0.610462 0 95.724308 3.544615 143.891692 63.271385 1.201231 1.772308 136.664615 137.787077 279.965539 106.436923l-1.220924-4.726154c-140.878769 30.739692-273.92-104.073846-275.12123-105.255385a152.615385 152.615385 0 0 0-61.420308-44.347076zM822.547692 536.201846c-27.707077-11.224615-56.615385-18.333538-86.70523-20.105846-167.384615 23.630769-296.822154-113.545846-298.023385-114.727385-61.400615-82.786462-184.221538-84.558769-185.422769-84.558769-148.716308-7.68-227.584-102.301538-228.785231-103.483077l-3.603692 2.953846c0.590769 1.181538 81.270154 97.575385 232.36923 105.255385 1.220923 0 121.028923 1.181538 181.83877 82.786462 1.201231 1.772308 133.041231 140.150154 302.217846 116.499692 0.610462 0 95.724308 3.544615 143.891692 63.271384 1.201231 1.772308 136.664615 137.767385 279.965539 106.436924l-1.220924-4.726154c-140.878769 30.739692-273.92-104.073846-275.12123-105.255385a161.28 161.28 0 0 0-61.420308-44.347077zM822.547692 516.115692c-27.707077-11.224615-56.615385-18.313846-86.70523-20.105846-167.384615 23.650462-296.822154-113.526154-298.023385-114.707692-61.400615-82.786462-184.221538-84.558769-185.422769-84.558769-148.716308-7.68-227.584-102.301538-228.785231-103.483077l-3.603692 2.953846c0.590769 1.181538 81.270154 97.555692 232.36923 105.255384 1.220923 0 121.028923 1.181538 181.83877 82.786462 1.201231 1.772308 133.041231 140.130462 302.217846 116.48 0.610462 0 95.724308 3.544615 143.891692 63.271385 1.201231 1.772308 136.664615 137.787077 279.965539 106.436923l-1.220924-4.726154c-140.878769 30.759385-273.92-104.073846-275.12123-105.255385a152.615385 152.615385 0 0 0-61.420308-44.347077zM842.535385 496.049231c-27.687385-11.244308-56.595692-18.333538-86.685539-20.125539-167.384615 23.670154-296.822154-113.526154-298.023384-114.707692-61.400615-82.786462-184.221538-84.558769-185.42277-84.558769-148.716308-7.68-227.584-102.301538-228.78523-103.483077l-3.603693 2.953846c0.590769 1.181538 81.270154 97.575385 232.369231 105.255385 1.220923 0 121.028923 1.181538 181.838769 82.786461 1.181538 1.772308 133.041231 140.150154 302.217846 116.499692 0.590769 0 95.724308 3.544615 143.891693 63.271385 1.201231 1.772308 136.664615 137.767385 279.965538 106.436923l-1.220923-4.726154c-140.878769 30.72-273.92-104.073846-275.121231-105.275077a152.615385 152.615385 0 0 0-61.420307-44.347077zM862.542769 455.876923c-27.687385-11.224615-56.595692-18.313846-86.685538-20.086154-167.384615 23.630769-296.822154-113.545846-298.023385-114.727384-61.400615-82.786462-184.221538-84.558769-185.422769-84.55877-148.716308-7.68-227.584-102.301538-228.785231-103.483077l-3.603692 2.953847c0.590769 1.181538 81.270154 97.575385 232.369231 105.255384 1.220923 0 121.028923 1.181538 181.838769 82.786462 1.181538 1.772308 133.041231 140.150154 302.217846 116.48 0.590769 0 95.724308 3.544615 143.891692 63.271384 1.201231 1.772308 136.664615 137.787077 279.945846 106.436923l-1.181538-4.726153c-140.898462 30.759385-273.939692-104.073846-275.160615-105.255385-16.246154-19.495385-37.316923-34.284308-61.400616-44.347077zM862.542769 435.790769c-27.687385-11.224615-56.595692-18.313846-86.685538-20.086154-167.384615 23.630769-296.822154-113.545846-298.023385-114.727384-61.400615-82.786462-184.221538-84.558769-185.422769-84.558769-148.716308-7.68-227.584-102.301538-228.785231-103.483077l-3.603692 2.953846c0.590769 1.181538 81.270154 97.575385 232.369231 105.255384 1.220923 0 121.028923 1.181538 181.838769 82.786462 1.181538 1.772308 133.041231 140.150154 302.217846 116.499692 0.590769 0 95.724308 3.544615 143.891692 63.271385 1.201231 1.772308 136.664615 137.767385 279.945846 106.436923l-1.181538-4.726154c-140.898462 30.739692-273.939692-104.073846-275.160615-105.255385a174.867692 174.867692 0 0 0-61.400616-44.347076zM882.550154 395.638154c-27.687385-11.224615-56.595692-18.313846-86.705231-20.086154-167.364923 23.630769-296.802462-113.545846-298.003692-114.727385-61.400615-82.786462-184.221538-84.558769-185.422769-84.558769-148.716308-7.68-227.584-102.301538-228.785231-103.483077l-3.623385 2.953846c0.610462 1.181538 81.289846 97.575385 232.408616 105.255385 1.181538 0 121.009231 1.181538 181.819076 82.786462 1.181538 1.772308 133.041231 140.150154 302.217847 116.499692 0.590769 0 95.724308 3.544615 143.891692 63.271384 1.201231 1.772308 136.664615 137.767385 279.945846 106.436924l-1.181538-4.726154c-140.898462 30.72-273.939692-104.093538-275.160616-105.275077a164.627692 164.627692 0 0 0-61.400615-44.347077zM882.550154 395.638154c-27.687385-11.224615-56.595692-18.313846-86.705231-20.086154-167.364923 23.630769-296.802462-113.545846-298.003692-114.727385-61.400615-82.786462-184.221538-84.558769-185.422769-84.558769-148.716308-7.68-227.584-102.301538-228.785231-103.483077l-3.623385 2.953846c0.610462 1.181538 81.289846 97.575385 232.408616 105.255385 1.181538 0 121.009231 1.181538 181.819076 82.786462 1.181538 1.772308 133.041231 140.150154 302.217847 116.499692 0.590769 0 95.724308 3.544615 143.891692 63.271384 1.201231 1.772308 136.664615 137.767385 279.945846 106.436924l-1.181538-4.726154c-140.898462 30.72-273.939692-104.093538-275.160616-105.275077a152.615385 152.615385 0 0 0-61.400615-44.347077zM902.557538 355.485538c-27.707077-11.224615-56.595692-18.313846-86.70523-20.086153-167.364923 23.630769-296.802462-113.545846-298.003693-114.727385-61.420308-82.786462-184.221538-84.558769-185.442461-84.558769-148.696615-7.68-227.564308-102.301538-228.765539-103.483077l-3.623384 2.953846c0.590769 1.181538 81.289846 97.575385 232.388923 105.255385 1.220923 0 121.028923 1.181538 181.819077 82.786461 1.220923 1.772308 133.060923 140.150154 302.237538 116.48 0.590769 0 95.724308 3.544615 143.891693 63.271385 1.201231 1.772308 136.664615 137.787077 279.945846 106.436923l-1.201231-4.726154c-140.878769 30.759385-273.92-104.073846-275.140923-105.255385a152.615385 152.615385 0 0 0-61.400616-44.347077zM902.557538 335.419077c-27.707077-11.244308-56.595692-18.333538-86.70523-20.105846-167.364923 23.630769-296.802462-113.545846-298.003693-114.727385-62.030769-83.377231-184.221538-84.558769-185.442461-84.558769-148.696615-7.68-227.564308-102.301538-228.765539-103.483077l-3.623384 2.953846c0.590769 1.181538 81.289846 97.575385 232.388923 105.255385 1.220923 0 121.028923 1.181538 181.819077 82.786461 1.220923 1.772308 133.060923 140.150154 302.237538 116.499693 0.590769 0 95.724308 3.544615 143.891693 63.271384 1.201231 1.772308 136.664615 137.767385 279.945846 106.436923l-1.201231-4.726154c-140.878769 30.739692-273.92-104.073846-275.140923-105.255384a156.829538 156.829538 0 0 0-61.400616-44.347077zM922.564923 315.332923c-27.707077-11.224615-56.595692-18.333538-86.705231-20.105846-167.364923 23.650462-296.802462-113.526154-298.003692-114.707692-61.420308-82.786462-184.241231-84.558769-185.442462-84.55877-148.696615-7.68-227.564308-102.301538-228.765538-103.483077l-3.623385 2.953847c0.590769 1.181538 81.289846 97.555692 232.388923 105.255384 1.201231 0 121.009231 1.181538 181.819077 82.786462 1.201231 1.772308 133.060923 140.130462 302.237539 116.48 0.590769 0 95.704615 3.544615 143.891692 63.271384 1.181538 1.772308 136.664615 137.787077 279.945846 106.436923l-1.20123-4.726153c-140.878769 30.739692-273.92-104.073846-275.140924-105.255385a152.615385 152.615385 0 0 0-61.400615-44.347077zM610.146462-107.913846c-260.056615 0-470.114462 215.926154-470.114462 481.870769 0 265.944615 210.668308 481.870769 470.114462 481.870769 259.465846 0 470.114462-215.926154 470.114461-481.870769 0-265.944615-210.057846-481.28-470.114461-481.870769z m0 949.110154c-251.726769 0-455.837538-209.211077-455.837539-467.239385 0-258.008615 204.110769-466.628923 455.837539-466.628923s455.837538 209.230769 455.837538 467.239385c-0.590769 257.417846-204.110769 466.628923-455.837538 466.628923zM610.146462-128C328.684308-128 100.036923 100.903385 100.036923 384c0 282.505846 228.056615 512 510.129231 512C891.608615 896 1120.295385 667.096615 1120.295385 384c-0.590769-283.096615-228.667077-512-510.129231-512z m0 1018.584615C331.086769 890.584615 105.432615 663.492923 105.432615 384c0-280.103385 226.264615-506.584615 504.713847-506.584615 279.079385 0 504.713846 227.091692 504.713846 506.584615 0 279.492923-225.634462 505.974154-504.713846 506.584615zM600.142769 52.696615c-176.738462 0-320.078769 143.872-320.078769 321.260308s143.340308 321.260308 320.078769 321.260308c176.738462 0 320.078769-143.872 320.078769-321.260308-0.590769-177.388308-143.340308-321.260308-320.078769-321.260308z m0 622.434462c-165.572923 0-300.071385-134.990769-300.071384-301.174154s134.498462-301.174154 300.071384-301.174154 300.071385 134.990769 300.071385 301.174154c0 166.203077-134.498462 300.583385-300.071385 301.174154zM600.142769 112.935385c-143.616 0-260.056615 116.873846-260.056615 261.021538 0 144.147692 116.440615 261.021538 260.056615 261.021539 143.635692 0 260.076308-116.854154 260.076308-261.021539-0.590769-144.147692-116.440615-261.021538-260.076308-261.021538z m0 517.316923c-140.662154 0-255.330462-114.510769-255.330461-256.295385 0-141.193846 114.077538-256.275692 255.330461-256.275692 140.681846 0 255.330462 114.491077 255.330462 256.275692-0.590769 141.193846-114.648615 256.275692-255.330462 256.275692zM349.518769 655.064615l-7.817846 22.09477-21.622154 9.806769 19.219693 14.729846 3.012923 23.335385 19.810461-12.898462 23.433846 4.292923-6.596923-22.705231 11.421539-20.243692-24.044308-1.240615-16.817231-17.171693z m139.362462 69.96677l1.201231 23.315692-16.20677 17.801846 22.823385 5.513846 12.012308 20.263385 13.213538-19.633231 23.433846-5.513846-15.025231-17.821539 2.402462-23.315692-22.212923 8.585846-21.641846-9.196307z m188.652307 14.729846l-23.433846-1.851077 7.798154 22.094769-10.200615 22.094769 23.433846-1.831384 17.408 15.340307 6.616615-23.315692 21.011693-12.288-19.810462-12.268308-4.214154-23.315692-18.628923 15.340308zM300.071385 566.016l-18.057847-11.52-5.316923-19.889231-15.931077 12.544-20.716307-2.619077 7.975384 18.865231-7.975384 18.313846 20.716307-0.512 15.95077 13.627077 4.765538-19.377231 18.589539-9.432615zM485.553231 209.211077c8.369231 4.411077 14.237538 10.279385 17.171692 17.388308 2.087385 6.715077-1.772308 24.477538-11.756308 53.16923l-25.028923-3.308307c8.900923-22.449231 12.859077-35.977846 11.264-40.369231a16.068923 16.068923 0 0 0-7.837538-8.369231l-106.456616-49.624615c-7.699692-3.603692-13.351385-1.536-16.935384 6.163692l-26.683077 57.186462 132.135385 61.636923-42.732308 91.648-163.406769-76.209231 9.984-21.405539 140.701538 65.61477 22.764308-48.836923-109.430154-51.02277-13.193846 28.258462-22.252308-10.377846 51.712-110.946462c8.999385-19.278769 22.488615-24.713846 40.900923-16.128l119.079385 55.532308z m92.947692 170.318769a179.928615 179.928615 0 0 1 40.192 55.768616c16.226462-2.363077 33.063385-5.454769 50.274462-9.944616l3.50523 24.339692a537.6 537.6 0 0 1-45.331692 8.310154c3.623385 12.918154 5.907692 26.486154 7.030154 40.841846l-22.685539 1.142154a165.316923 165.316923 0 0 0-7.739076-39.325538 563.298462 563.298462 0 0 1-56.812308 2.717538l-3.682462-22.843077c16.502154 0.393846 33.516308-0.295385 51.003077-2.028307a166.537846 166.537846 0 0 0-36.253538-46.375385l20.48-12.603077z m4.233846-130.481231c16.285538 7.601231 24.871385 16.541538 26.427077 26.663385 1.220923 10.220308-9.984 40.96-33.752615 91.963077l-15.635693-7.305846-31.074461 92.947692-76.898462-35.879385 9.787077-20.972307 53.976616 25.166769 22.803692-71.246769-20.361846-9.491693-18.156308 59.076924-21.917538-8.920616 26.112-81.703384 59.31323 27.667692c13.193846-28.278154 19.889231-46.001231 20.55877-52.992 0.452923-6.577231-4.588308-12.563692-15.281231-17.565539-3.426462-1.595077-9.728-3.741538-18.707692-6.892307l15.616-17.23077a167.975385 167.975385 0 0 1 17.191384 6.715077z m53.011693 20.539077a150.784 150.784 0 0 1 29.085538 51.121231 160.019692 160.019692 0 0 1 59.510154-8.507077l4.411077 26.308923a161.004308 161.004308 0 0 0-57.974154 6.340923c3.643077 21.267692 3.761231 45.056-0.059077 71.168l-24.221538-0.610461c3.84-21.661538 4.233846-42.082462 1.28-61.459693a169.590154 169.590154 0 0 0-46.217847 34.776616l-13.410461-19.298462c16.876308-16.64 34.796308-29.932308 53.779692-39.325538a138.712615 138.712615 0 0 0-29.420308-48.147692l23.236924-12.36677z m-114.786462-6.57723a411.273846 411.273846 0 0 1 49.526154 36.903384l-9.688616 20.775385a472.477538 472.477538 0 0 0-52.91323-37.454769l13.075692-20.224z m260.923077 81.250461l-3.209846 6.852923 133.651692 62.306462 3.190154-6.852923 21.622154 10.102153-84.972308 182.252308-176.915692-82.510769 84.992-182.232615 21.641846 10.082461z m121.245538 88.871385l-133.632-62.326154-63.40923 135.995077 133.632 62.326154 63.40923-135.995077z m-36.52923 17.388307l-37.435077 80.305231-86.744616-40.448 37.45477-80.305231 86.724923 40.448z m-29.676308 8.841847l-44.977231-20.972308-20.066461 43.047384 44.97723 20.972308 20.086154-43.047384z"  horiz-adv-x="1260" />

    
    <glyph glyph-name="bohui" unicode="&#59122;" d="M512 896a512 512 0 1 0 0-1024A512 512 0 0 0 512 896zM376.256 564.992a32 32 0 1 1-45.248-45.248L466.752 384l-135.744-135.744a32 32 0 0 1-3.712-40.832l3.712-4.48a32 32 0 0 1 45.248 0L512 338.816l135.744-135.744a32 32 0 0 1 40.832-3.712l4.48 3.712a32 32 0 0 1 0 45.248L557.184 384l135.744 135.744a32 32 0 0 1 3.712 40.832l-3.712 4.48a32 32 0 0 1-45.248 0L512 429.184z"  horiz-adv-x="1024" />

    
    <glyph glyph-name="daishenpi" unicode="&#59123;" d="M512 896a512 512 0 1 0 0-1024A512 512 0 0 0 512 896z m0-256a32 32 0 0 1-32-32v-256A32 32 0 0 1 512 320h256a32 32 0 1 1 0 64l-224 0.064V608a32 32 0 0 1-26.24 31.488z"  horiz-adv-x="1024" />

    
    <glyph glyph-name="chuanyue" unicode="&#59124;" d="M1003.903078 129.152798l-144.12773-144.703729a25.471952 25.471952 0 0 0-35.839933-0.319999l-11.967977 11.839978a24.959953 24.959953 0 0 0-0.192 35.519933l96.06382 96.575819H571.583888a25.599952 25.599952 0 0 0-25.599952 25.471952v17.151968c0 14.079974 11.519978 25.599952 25.599952 25.599952h339.391364L801.279458 307.264464a25.663952 25.663952 0 0 0 0.191999 36.159932l12.159977 11.967978a25.535952 25.535952 0 0 0 36.223933-0.192l155.903707-157.823704c0.895998-0.895998 17.983966-12.863976 18.239966-33.599937 0.256-20.735961-12.799976-27.199949-20.095962-34.687935zM452.096112 128.0008H179.200624a25.599952 25.599952 0 0 0-25.599952 25.471952v17.151968c0 14.079974 11.391979 25.599952 25.599952 25.599952h272.895488a25.599952 25.599952 0 0 0 25.599952-25.599952v-17.151968a25.599952 25.599952 0 0 0-25.599952-25.471952zM691.071664 588.799936H179.200624a25.599952 25.599952 0 0 0-25.599952 25.599952v17.023968a25.599952 25.599952 0 0 0 25.599952 25.599952h511.87104a25.599952 25.599952 0 0 0 25.471952-25.599952v-16.959968a25.599952 25.599952 0 0 0-25.471952-25.663952z m25.471952-196.287632c0-14.079974-11.391979-25.535952-25.471952-25.535952H179.200624a25.599952 25.599952 0 0 0-25.599952 25.535952V409.600272c0 14.079974 11.391979 25.599952 25.599952 25.599952h511.87104a25.599952 25.599952 0 0 0 25.471952-25.599952v-17.087968zM801.919456 691.199744c0 136.511744 0 136.511744-136.447744 136.511744h-460.799136c-106.111801 0-136.383744-31.231941-136.383744-136.511744v-614.398848c0-87.103837 8.767984-136.511744 136.447744-136.511744h409.599232s32.447939-0.767999 33.983936-34.175936c1.663997-34.111936-34.047936-34.111936-34.047936-34.111936H145.088688A144.639729 144.639729 0 0 0 0.00096 16.19301V751.80763A144.639729 144.639729 0 0 0 145.088688 895.99936h580.030912a144.639729 144.639729 0 0 0 145.023728-144.19173v-282.49547s4.031992-33.663937-34.111936-34.111936c-34.431935-0.447999-34.111936 34.111936-34.111936 34.111936V691.199744z"  horiz-adv-x="1024" />

    
    <glyph glyph-name="dayin" unicode="&#59126;" d="M995.455378 673.599499a97.919939 97.919939 0 0 1-69.823957 28.927982h-73.919953V796.351422c0 55.039966-44.799972 99.647938-100.159938 99.647938H272.44783a99.839938 99.839938 0 0 1-100.159938-99.647938v-94.399941H98.367939C44.223972 701.951481 0 657.983509 0 604.031542v-368.895769c0-53.823966 44.223972-97.919939 98.367939-97.919939h73.919953v-165.567896c0-55.039966 44.799972-99.647938 100.159938-99.647938h478.527701a99.839938 99.839938 0 0 1 100.095937 99.647938v165.631896h74.559953c54.143966 0 98.367939 44.031972 98.367939 97.919939V604.031542a99.839938 99.839938 0 0 1-28.543982 69.503957zM272.44783 823.615405h478.527701c15.103991 0 27.327983-12.159992 27.327983-27.263983v-94.399941H245.119847V796.351422c0 15.103991 12.223992 27.263983 27.391983 27.263983z m542.591661-460.479712h-606.079622a36.479977 36.479977 0 0 1-36.671977-36.479977v-116.991927H98.367939a25.791984 25.791984 0 0 0-25.599984 25.471984V604.159542c0 13.887991 11.647993 25.471984 25.599984 25.471984h827.263482c13.951991 0 25.599984-11.519993 25.599984-25.471984v-368.959769a25.791984 25.791984 0 0 0-25.599984-25.471984h-73.919953V326.655716a36.479977 36.479977 0 0 1-36.671977 36.479977zM245.055847 290.751738h533.247667v-320.895799a27.327983 27.327983 0 0 0-27.327983-25.471984H272.44783a27.263983 27.263983 0 0 0-27.391983 27.263983V290.751738zM895.99944 456.191635c0 30.527981-27.007983 55.807965-60.799962 55.807965-33.279979 0-60.863962-24.767985-60.863962-55.807965 0-30.591981 26.943983-55.871965 60.799962-55.871965 33.279979 0 60.287962 24.767985 60.863962 55.871965zM416.12774 133.759836h199.167875c20.095987 0 32.19198 8.959994 32.19198 24.191985 0 15.29599-12.095992 24.255985-32.19198 24.255985H416.12774c-20.095987 0-32.12798-8.959994-32.12798-24.255985s12.031992-24.191985 32.12798-24.191985z m0-133.823916h199.167875c20.095987 0 32.19198 8.959994 32.19198 24.255985 0 15.23199-12.671992 25.279984-32.19198 25.279984H416.12774c-19.519988 0-32.12798-10.047994-32.12798-25.279984 0-14.719991 12.031992-24.255985 32.12798-24.255985z"  horiz-adv-x="1024" />

    
    <glyph glyph-name="dangqianzhuangtai" unicode="&#59129;" d="M512 896l192-128-192-128V734.72a384 384 0 1 1 416-382.72 32 32 0 1 0 64 0A448 448 0 1 0 512 798.848V896z m32-320a32 32 0 0 0 32-32V384h160a32 32 0 1 0 0-64h-192a32 32 0 0 0-32 32v192a32 32 0 0 0 32 32z"  horiz-adv-x="1024" />

    
    <glyph glyph-name="chaosongren" unicode="&#59130;" d="M384 385.92v0.192c0 12.352-11.712 22.4-26.24 22.4-95.232 0-172.672 70.592-172.672 157.312 0 86.784 77.44 157.44 172.672 157.44 14.528 0 26.24 9.984 26.24 22.4C384 757.888 372.288 768 357.76 768 233.6 768 132.608 677.312 132.608 565.888c0-74.368 45.056-139.264 111.808-174.4C102.592 348.736 0 228.288 0 86.4c0-12.352 11.712-22.4 26.24-22.4 14.528 0 26.24 10.048 26.24 22.4 0 152.832 136.96 277.12 305.28 277.12 14.528 0 26.24 10.048 26.24 22.4zM727.04 387.264c79.488 40.32 133.632 118.144 133.632 207.616C860.672 725.632 745.408 832 603.776 832 462.08 832 346.88 725.632 346.88 594.88c0-90.304 55.104-168.96 135.936-208.96C314.624 338.112 192 193.28 192 22.656c0-12.48 10.944-22.656 24.512-22.656s24.512 10.176 24.512 22.656c0 184.576 162.752 334.72 360.96 334.848 1.664-0.192 3.2 0.192 4.736 0.384 2.24-0.448 4.544-0.64 6.912-0.448 198.4 0 361.28-150.208 361.28-334.784 0-12.48 10.944-22.656 24.512-22.656 13.632 0 24.576 10.176 24.576 22.656 0 172.672-125.632 318.528-296.96 364.672zM603.712 403.2c-114.56 0-207.872 86.016-207.872 191.744 0 105.792 93.248 191.872 207.872 191.872 114.56 0 207.808-86.08 207.808-191.872 0-105.728-93.248-191.744-207.808-191.744z"  horiz-adv-x="1024" />

    
    </font>
</defs>
</svg>
